<svg width="32" height="32" viewBox="0 0 32 32" fill="none" xmlns="http://www.w3.org/2000/svg">
<path fill-rule="evenodd" clip-rule="evenodd" d="M16 21.3333C21.1546 21.3333 25.3333 17.1546 25.3333 12C25.3333 6.84533 21.1546 2.66666 16 2.66666C10.8453 2.66666 6.66663 6.84533 6.66663 12C6.66663 17.1546 10.8453 21.3333 16 21.3333ZM16 7.99999C15.6212 7.99999 15.3679 8.45444 14.8612 9.36334L14.7301 9.59848C14.5862 9.85676 14.5142 9.9859 14.4019 10.0711C14.2897 10.1563 14.1499 10.188 13.8703 10.2512L13.6158 10.3088C12.6319 10.5314 12.14 10.6427 12.0229 11.0191C11.9059 11.3954 12.2413 11.7876 12.912 12.572L13.0855 12.7749C13.2761 12.9978 13.3714 13.1092 13.4143 13.2471C13.4572 13.3849 13.4428 13.5336 13.414 13.831L13.3877 14.1017C13.2863 15.1482 13.2356 15.6715 13.542 15.9041C13.8484 16.1367 14.309 15.9246 15.2302 15.5005L15.4686 15.3907C15.7303 15.2702 15.8612 15.2099 16 15.2099C16.1387 15.2099 16.2696 15.2702 16.5314 15.3907L16.7697 15.5005C17.6909 15.9246 18.1515 16.1367 18.4579 15.9041C18.7643 15.6715 18.7136 15.1482 18.6122 14.1017L18.586 13.831C18.5572 13.5336 18.5427 13.3849 18.5856 13.2471C18.6285 13.1092 18.7238 12.9978 18.9144 12.7749L19.0879 12.572C19.7587 11.7876 20.094 11.3954 19.977 11.0191C19.86 10.6427 19.368 10.5314 18.3841 10.3088L18.1296 10.2512C17.85 10.188 17.7102 10.1563 17.598 10.0711C17.4857 9.9859 17.4138 9.85676 17.2698 9.59848L17.1387 9.36334C16.632 8.45444 16.3787 7.99999 16 7.99999Z" fill="black"/>
<path d="M9.45735 21.2552L8.95232 23.0973C8.11453 26.1531 7.69564 27.681 8.25463 28.5174C8.45053 28.8106 8.71334 29.0458 9.01829 29.2011C9.88846 29.6442 11.232 28.9441 13.9191 27.544C14.8132 27.0781 15.2602 26.8451 15.7352 26.7945C15.9113 26.7758 16.0887 26.7758 16.2648 26.7945C16.7398 26.8451 17.1868 27.0781 18.0809 27.5439C20.768 28.9441 22.1115 29.6442 22.9817 29.2011C23.2867 29.0458 23.5495 28.8106 23.7454 28.5174C24.3044 27.681 23.8855 26.1531 23.0477 23.0973L22.5427 21.2552C20.6945 22.5641 18.4371 23.3333 16 23.3333C13.5629 23.3333 11.3055 22.5641 9.45735 21.2552Z" fill="#1C274C"/>
</svg>
