<svg width="32" height="32" viewBox="0 0 32 32" fill="none" xmlns="http://www.w3.org/2000/svg">
<path fill-rule="evenodd" clip-rule="evenodd" d="M19.0002 5.97271L19.0002 10.0496C18.9999 10.1979 18.9996 10.4093 19.028 10.5908C19.0627 10.8127 19.1768 11.241 19.6203 11.5015C20.0475 11.7523 20.4653 11.6591 20.6639 11.5974C20.837 11.5436 21.0269 11.4532 21.1684 11.3857L22.6669 10.6739L24.1653 11.3857C24.3068 11.4532 24.4967 11.5436 24.6698 11.5974C24.8684 11.6591 25.2862 11.7523 25.7134 11.5015C26.1569 11.241 26.271 10.8127 26.3057 10.5908C26.3341 10.4093 26.3338 10.1979 26.3336 10.0496L26.3335 4.04173C26.4839 4.03466 26.6316 4.02868 26.7759 4.02365C28.205 3.97387 29.3333 5.14765 29.3333 6.57758V21.5248C29.3333 23.0061 28.1252 24.2046 26.6468 24.2971C25.3543 24.3779 23.8356 24.536 22.6666 24.8445C21.2247 25.225 19.5027 26.0486 18.1701 26.759C17.798 26.9573 17.404 27.101 17.0002 27.19V6.89848C17.4279 6.79373 17.8432 6.62854 18.2317 6.40366C18.4775 6.26145 18.7351 6.11641 19.0002 5.97271ZM26.3037 17.0908C26.4376 17.6266 26.1119 18.1695 25.5761 18.3035L20.2427 19.6368C19.7069 19.7707 19.164 19.445 19.0301 18.9092C18.8961 18.3734 19.2219 17.8305 19.7577 17.6965L25.091 16.3632C25.6268 16.2292 26.1697 16.555 26.3037 17.0908Z" fill="black"/>
<path fill-rule="evenodd" clip-rule="evenodd" d="M15.0002 6.95195C14.5545 6.8673 14.1191 6.71712 13.7096 6.5006C12.3948 5.80534 10.7322 5.01907 9.33329 4.64991C8.15128 4.338 6.61166 4.17985 5.30983 4.09984C3.84836 4.01002 2.66663 5.1995 2.66663 6.66373V21.5248C2.66663 23.0061 3.87469 24.2046 5.3531 24.2971C6.64567 24.3779 8.16435 24.536 9.33329 24.8445C10.7752 25.225 12.4972 26.0486 13.8298 26.759C14.202 26.9574 14.5962 27.1011 15.0002 27.1901V6.95195ZM5.69672 11.7575C5.83067 11.2217 6.3736 10.8959 6.9094 11.0298L12.2427 12.3632C12.7785 12.4971 13.1043 13.0401 12.9703 13.5759C12.8364 14.1117 12.2935 14.4374 11.7577 14.3035L6.42433 12.9701C5.88853 12.8362 5.56277 12.2932 5.69672 11.7575ZM6.9094 16.3632C6.3736 16.2292 5.83067 16.555 5.69672 17.0908C5.56277 17.6266 5.88853 18.1695 6.42433 18.3035L11.7577 19.6368C12.2935 19.7707 12.8364 19.445 12.9703 18.9092C13.1043 18.3734 12.7785 17.8305 12.2427 17.6965L6.9094 16.3632Z" fill="black"/>
<path d="M24.3335 4.20133C23.5068 4.29907 22.6941 4.44211 22 4.64991C21.6779 4.74632 21.3418 4.86854 21.0002 5.00852V5.26669V9.25144L21.9993 8.77687L22.011 8.77095C22.0764 8.73754 22.3517 8.59675 22.6669 8.59675C22.7302 8.59675 22.792 8.60244 22.8508 8.61181C23.0843 8.64904 23.2705 8.74426 23.3227 8.77095L23.3344 8.77686L24.3335 9.25144V4.86219V4.20133Z" fill="black"/>
</svg>
