<svg width="72" height="76" viewBox="0 0 72 76" fill="none" xmlns="http://www.w3.org/2000/svg">
<g clip-path="url(#clip0_4428_18750)">
<path d="M44.3272 29.3081V18.8201H45.3463C47.0902 18.8201 48.5172 17.3925 48.5172 15.6478C48.5172 13.9032 47.0902 12.4756 45.3463 12.4756H25.9364C24.1926 12.4756 22.7656 13.9032 22.7656 15.6478C22.7656 17.3925 24.1926 18.8201 25.9364 18.8201H26.9555V29.3081C17.9145 32.7974 11.5 41.5725 11.5 51.8478C11.5 65.1866 22.3082 75.9997 35.641 75.9997C48.9738 75.9997 59.782 65.1866 59.782 51.8478C59.782 41.5725 53.3674 32.7974 44.3268 29.3081H44.3272Z" fill="#D1E1EB"/>
<path d="M32.0599 16.2666H31.0408C29.2969 16.2666 27.8699 14.839 27.8699 13.0943C27.8699 12.8828 27.8917 12.6758 27.9319 12.4756H25.936C24.1922 12.4756 22.7652 13.9032 22.7652 15.6478C22.7652 17.3925 24.1922 18.8201 25.936 18.8201H26.9551V29.3081C17.9145 32.7974 11.5 41.5725 11.5 51.8478C11.5 65.1866 22.3082 75.9997 35.641 75.9997C38.205 75.9997 40.6748 75.5984 42.9929 74.8576C41.6871 74.9878 40.3773 75.0703 39.0651 75.0941C35.5975 75.1561 32.0897 74.8053 28.7715 73.7603C25.4831 72.7251 22.4427 70.9853 19.9672 68.5752C17.135 65.8178 15.1399 62.3406 14.0749 58.5396C12.1619 51.7133 13.7596 43.8988 17.8328 38.1622C17.8328 38.1622 22.2679 31.6118 31.987 30.7603C31.9991 30.7591 32.105 20.5458 32.105 20.5458L38.5904 18.8197H45.3459C46.8784 18.8197 48.1648 17.7172 48.4547 16.2662H32.0599V16.2666Z" fill="#9ECDE6"/>
<path d="M55.3688 46.7878C54.9508 48.0092 46.2654 48.9845 35.6098 48.9845C24.9542 48.9845 16.6734 48.0543 15.8923 46.8728C15.4928 48.4652 15.2778 50.1313 15.2778 51.8477C15.2778 63.0991 24.3945 72.2199 35.6408 72.2199C46.8871 72.2199 56.0038 63.0991 56.0038 51.8477C56.0038 50.1007 55.7823 48.406 55.3688 46.7878Z" fill="#A75A97"/>
<path d="M35.6955 67.2462C35.0602 66.2021 34.4256 65.1576 33.7802 64.1199C33.2169 63.2143 32.6805 62.2617 32.4108 61.222C32.1523 60.227 32.1801 59.1651 32.5714 58.2076C32.8891 57.4306 33.2789 56.6849 33.7021 55.9606C34.6809 54.2849 35.83 52.7094 37.0339 51.19C37.6359 50.4302 38.2564 49.685 38.893 48.9535C37.8251 48.974 36.7287 48.9849 35.6098 48.9849C25.203 48.9849 16.6734 48.0548 15.8923 46.8733C15.4928 48.4657 15.2778 50.1318 15.2778 51.8482C15.2778 63.0995 24.3945 72.2203 35.6408 72.2203C36.643 72.2203 37.6278 72.1466 38.5918 72.0068C37.6262 70.4201 36.6611 68.8334 35.6955 67.2466V67.2462Z" fill="#65488F"/>
<path d="M35.6103 48.9845C46.2659 48.9845 54.9513 48.0092 55.3693 46.7878C55.3798 46.7572 55.3866 46.7266 55.3866 46.6956C55.3866 45.4315 46.5324 44.4067 35.6103 44.4067C24.6881 44.4067 15.834 45.4315 15.834 46.6956C15.834 46.7552 15.8537 46.8144 15.8924 46.8728C16.6739 48.0539 25.2031 48.9845 35.6099 48.9845H35.6103Z" fill="#CC7AA8"/>
<path d="M50.853 41.5047C52.0286 39.4677 49.6959 35.9184 45.6428 33.5773C41.5897 31.2362 37.351 30.9898 36.1755 33.0269C34.9999 35.0639 37.3325 38.6132 41.3856 40.9543C45.4387 43.2954 49.6774 43.5418 50.853 41.5047Z" fill="white"/>
<path d="M54.4 44.777C53.8484 45.3852 52.7463 45.2837 51.9394 44.5506C51.1321 43.8174 50.9252 42.7302 51.4772 42.1219C52.0288 41.5137 53.1309 41.6152 53.9378 42.3483C54.7451 43.0815 54.952 44.1687 54.4 44.777Z" fill="white"/>
<path d="M35.8252 2.29287C31.3353 2.83709 27.6161 2.90718 27.2505 2.4689L27.6753 12.4751H43.4082L44.1817 0.44873L44.1745 0.449536C43.7843 0.963945 40.2157 1.76033 35.8252 2.29247V2.29287Z" fill="#F39452"/>
<path d="M39.8121 10.7603C38.4902 10.5791 37.1116 10.3035 35.9359 9.64329C35.4623 9.37743 35.0271 9.03583 34.7046 8.59514C34.2882 8.02554 34.1521 7.30609 34.0785 6.61847C33.9307 5.23557 34.0845 3.85629 34.1763 2.4754C30.4542 2.84681 27.5697 2.85205 27.25 2.46936L27.6748 12.4756H43.4077L43.5003 11.0383C42.267 11.0032 41.0341 10.9279 39.8117 10.7603H39.8121Z" fill="#EF7747"/>
<path d="M35.825 2.29291C40.2155 1.76078 43.7841 0.963986 44.1743 0.44998C44.2013 0.414531 44.2133 0.380694 44.2093 0.348065C44.1481 -0.157482 40.2948 -0.106323 35.6032 0.462467C30.9112 1.03126 27.1573 1.90177 27.2185 2.40731C27.2213 2.42906 27.2334 2.44961 27.2499 2.46894C27.6155 2.90682 31.3347 2.83672 35.8246 2.29291H35.825Z" fill="#F8B88A"/>
</g>
<defs>
<clipPath id="clip0_4428_18750">
<rect width="48.2824" height="76" fill="white" transform="translate(11.5)"/>
</clipPath>
</defs>
</svg>
