<svg width="28" height="32" viewBox="0 0 28 32" fill="none" xmlns="http://www.w3.org/2000/svg">
<path d="M21.4812 2.45032H16.8241V16.7178H21.4812V2.45032Z" fill="#E94311"/>
<path d="M12.167 2.45032H7.50995V16.7178H12.167V2.45032Z" fill="#E94311"/>
<path d="M22.106 3.01715H6.88517C6.06704 3.01715 5.40173 2.34057 5.40173 1.50857C5.40173 0.676566 6.06704 0 6.88517 0H22.106C22.9242 0 23.5895 0.676566 23.5895 1.50857C23.5895 2.34057 22.9242 3.01715 22.106 3.01715Z" fill="#FFC33D"/>
<path d="M21.4767 3.01709H7.50995V3.81709H21.4767V3.01709Z" fill="#A53E11"/>
<path d="M16.8241 2.45032H12.1671V16.7178H16.8241V2.45032Z" fill="#FFFAFF"/>
<path d="M16.8241 3.01709H12.1671V3.81709H16.8241V3.01709Z" fill="#FFDEA3"/>
<path d="M23.5895 1.50854C23.5895 2.34054 22.9242 3.01712 22.106 3.01712H6.88517C6.06704 3.01712 5.40173 2.34054 5.40173 1.50854" fill="#EE7C1C"/>
<path d="M23.7782 22.3771L27.6262 18.464L23.7782 14.5554V9.02398H18.339L14.4956 5.11084L10.6477 9.02398H5.20841V14.5554L1.36499 18.464L5.20841 22.3771V27.9086H10.6477L14.4956 31.8171L18.339 27.9086H23.7782V22.3771Z" fill="#FFC33D"/>
<path d="M5.20844 9.02393L14.4956 18.4639L10.6477 9.02393H5.20844Z" fill="#75D4FC"/>
<path d="M14.4956 5.11084V18.464L10.6476 9.02398L14.4956 5.11084Z" fill="#51B0D4"/>
<path d="M1.36499 18.464H14.4956L5.20841 14.5554L1.36499 18.464Z" fill="#9BE7FE"/>
<path d="M5.20844 9.02393L14.4956 18.4639L5.20844 14.5554V9.02393Z" fill="#3283A9"/>
<path d="M23.7783 9.02393L14.4956 18.4639L23.7783 14.5554V9.02393Z" fill="#75D4FC"/>
<path d="M27.6262 18.464H14.4956L23.7783 14.5554L27.6262 18.464Z" fill="#9BE7FE"/>
<path d="M14.4956 5.11084V18.464L18.339 9.02398L14.4956 5.11084Z" fill="#9BE7FE"/>
<path d="M23.7783 9.02393L14.4956 18.4639L18.339 9.02393H23.7783Z" fill="#51B0D4"/>
<path d="M23.7783 27.9086L14.4956 18.464L18.339 27.9086H23.7783Z" fill="#75D4FC"/>
<path d="M14.4956 31.8171V18.464L18.339 27.9086L14.4956 31.8171Z" fill="#9BE7FE"/>
<path d="M27.6262 18.464H14.4956L23.7783 22.3771L27.6262 18.464Z" fill="#75D4FC"/>
<path d="M23.7783 27.9086L14.4956 18.464L23.7783 22.3771V27.9086Z" fill="#51B0D4"/>
<path d="M5.20844 27.9086L14.4956 18.464L5.20844 22.3771V27.9086Z" fill="#75D4FC"/>
<path d="M1.36499 18.464H14.4956L5.20841 22.3771L1.36499 18.464Z" fill="#51B0D4"/>
<path d="M14.4956 31.8171V18.464L10.6476 27.9086L14.4956 31.8171Z" fill="#75D4FC"/>
<path d="M5.20844 27.9086L14.4956 18.464L10.6477 27.9086H5.20844Z" fill="#3283A9"/>
<path d="M14.4956 27.424C19.3595 27.424 23.3063 23.4148 23.3063 18.464H14.4956V27.424Z" fill="#9BE7FE"/>
<path d="M14.4956 9.50403C9.63176 9.50403 5.68494 13.5132 5.68494 18.464H14.4956V9.50403Z" fill="#3283A9"/>
<path d="M14.4956 9.50403V18.464H23.3063C23.3063 13.5177 19.3639 9.50403 14.4956 9.50403Z" fill="#51B0D4"/>
<path d="M5.68494 18.464C5.68494 23.4103 9.62726 27.424 14.4956 27.424V18.464H5.68494Z" fill="#51B0D4"/>
<path d="M22.4769 19.7896C23.1964 15.3069 20.2062 11.0798 15.7983 10.3482C11.3903 9.61653 7.23371 12.6573 6.51425 17.14C5.79479 21.6227 8.7849 25.8497 13.1929 26.5814C17.6008 27.313 21.7574 24.2722 22.4769 19.7896Z" fill="#84D9FE"/>
<path d="M14.4956 24.1782C17.5989 24.1782 20.1146 21.6198 20.1146 18.4639C20.1146 15.308 17.5989 12.7496 14.4956 12.7496C11.3923 12.7496 8.87653 15.308 8.87653 18.4639C8.87653 21.6198 11.3923 24.1782 14.4956 24.1782Z" fill="#51B0D4"/>
<path d="M14.4956 12.7496C12.7874 12.7496 11.259 13.5268 10.2296 14.7474C11.2141 13.8925 12.4862 13.3714 13.8842 13.3714C16.9859 13.3714 19.5033 15.9314 19.5033 19.0856C19.5033 20.5028 18.9953 21.8011 18.1502 22.8022C19.3549 21.7554 20.1146 20.2011 20.1146 18.4639C20.1146 15.3096 17.5973 12.7496 14.4956 12.7496Z" fill="#3283A9"/>
<path d="M21.8723 1.15194H18.7481C18.5233 1.15194 18.339 0.964505 18.339 0.735934C18.339 0.507363 18.5233 0.319946 18.7481 0.319946H21.8723C22.097 0.319946 22.2813 0.507363 22.2813 0.735934C22.2813 0.964505 22.097 1.15194 21.8723 1.15194Z" fill="#F5F8FF"/>
<path d="M17.2332 1.14743C17.4591 1.14743 17.6422 0.961182 17.6422 0.731431C17.6422 0.501681 17.4591 0.31543 17.2332 0.31543C17.0072 0.31543 16.8241 0.501681 16.8241 0.731431C16.8241 0.961182 17.0072 1.14743 17.2332 1.14743Z" fill="#F5F8FF"/>
</svg>
