<svg width="30" height="32" viewBox="0 0 30 32" fill="none" xmlns="http://www.w3.org/2000/svg">
<path d="M0 17.1227C0 25.3429 6.65598 32 14.8571 32C23.0582 32 29.7142 25.3429 29.7142 17.1227V15.3453H0V17.1227Z" fill="#E16D00"/>
<path d="M0 16.6547C0 24.8748 6.65598 31.5319 14.8571 31.5319C23.0582 31.5319 29.7142 24.8748 29.7142 16.6547V14.8773H0V16.6547Z" fill="#FF910F"/>
<path d="M0 15.2423C0 23.4625 6.65598 30.1196 14.8571 30.1196C23.0582 30.1196 29.7142 23.4625 29.7142 15.2423V14.8773H0V15.2423Z" fill="#FFE50F"/>
<path d="M29.7142 14.8773C29.7142 23.0975 23.0661 29.7546 14.8571 29.7546C6.64806 29.7546 0 23.0975 0 14.8773C0 6.65709 6.65598 0 14.8571 0C23.0582 0 29.7142 6.65709 29.7142 14.8773Z" fill="#FBC616"/>
<path d="M14.8572 0C11.1806 0 7.82088 1.34095 5.2298 3.55469L26.9172 23.5339C28.6684 21.09 29.7143 18.1066 29.7143 14.8773C29.7143 14.179 29.6509 13.4967 29.5558 12.8302L15.6734 0.0476054C15.4039 0.0317363 15.1266 0.0079423 14.8572 0.0079423V0Z" fill="#FBD416"/>
<path d="M16.8381 29.6116C19.0884 29.3101 21.1803 28.5167 22.9949 27.3185L1.79082 7.79163C0.760725 9.69592 0.150595 11.8541 0.0317383 14.1393L16.8302 29.6116H16.8381Z" fill="#FBD416"/>
<path d="M25.2215 14.8772C25.2215 20.6059 20.5781 25.2556 14.8571 25.2556C9.13617 25.2556 4.49283 20.6059 4.49283 14.8772C4.49283 9.14842 9.13617 4.49878 14.8571 4.49878C20.5781 4.49878 25.2215 9.14842 25.2215 14.8772Z" fill="#F5A208"/>
<path d="M14.8571 6.68078C20.2136 6.68078 24.6193 10.7512 25.166 15.9721C25.2056 15.6151 25.2215 15.2501 25.2215 14.8772C25.2215 9.14842 20.5781 4.49878 14.8571 4.49878C9.13617 4.49878 4.49283 9.14842 4.49283 14.8772C4.49283 15.2422 4.5166 15.6071 4.54829 15.9721C5.09504 10.7512 9.50066 6.68078 14.8571 6.68078Z" fill="#E16D00"/>
<path d="M14.8571 4.713C20.5464 4.713 25.1581 9.29918 25.2135 14.9803C25.2135 14.9406 25.2135 14.9089 25.2135 14.8772C25.2135 9.14842 20.5702 4.49878 14.8492 4.49878C9.12823 4.49878 4.48489 9.14842 4.48489 14.8772C4.48489 14.9089 4.48489 14.9486 4.48489 14.9803C4.54036 9.29918 9.15993 4.713 14.8413 4.713H14.8571Z" fill="#FFE50F"/>
</svg>
