<svg width="32" height="32" viewBox="0 0 32 32" fill="none" xmlns="http://www.w3.org/2000/svg">
<path d="M17.1098 29.0684C21.2778 28.233 26.6667 25.2347 26.6667 17.4816C26.6667 10.4261 21.5022 5.72789 17.7887 3.56912C16.9647 3.09009 16 3.72007 16 4.67321V7.11119C16 9.03366 15.1917 12.5428 12.9458 14.0024C11.7991 14.7476 10.5607 13.6322 10.4213 12.2718L10.3069 11.1547C10.1739 9.85603 8.85122 9.06766 7.81327 9.85946C5.94862 11.2819 4 13.7728 4 17.4816C4 26.963 11.0519 29.3334 14.5778 29.3334C14.7829 29.3334 14.9984 29.3273 15.2228 29.3144C13.4817 29.1655 10.6667 28.0854 10.6667 24.5923C10.6667 21.8599 12.6601 20.0113 14.1747 19.1128C14.582 18.8711 15.0588 19.1849 15.0588 19.6585V20.4441C15.0588 21.0454 15.2913 21.9852 15.8448 22.6285C16.4712 23.3565 17.3906 22.5939 17.4647 21.6364C17.4881 21.3343 17.7919 21.1419 18.0534 21.2947C18.9085 21.7945 20 22.862 20 24.5923C20 27.323 18.4947 28.5791 17.1098 29.0684Z" fill="black"/>
</svg>
