<svg width="26" height="32" viewBox="0 0 26 32" fill="none" xmlns="http://www.w3.org/2000/svg">
<path d="M0.714294 10.1142V24.7023L13.3441 32V2.82385L0.714294 10.1142Z" fill="#6D2AA6"/>
<path d="M25.9738 10.1142L13.3441 2.82385V32L25.9738 24.7023V10.1142Z" fill="#843AD9"/>
<g style="mix-blend-mode:multiply">
<path d="M0.714294 24.1815V24.7023L13.3441 32L25.9739 24.7023V24.1815L13.3441 31.4792L0.714294 24.1815Z" fill="#CEAFE6"/>
</g>
<path d="M0.714294 7.71578V22.3038L13.3441 29.5942V0.425415L0.714294 7.71578Z" fill="#843AD9"/>
<path d="M25.9738 7.71578L13.3441 0.425415V29.5942L25.9738 22.3038V7.71578Z" fill="#9B43FF"/>
<path d="M13.3441 14.5881L25.9738 7.29036L13.3441 0V14.5881Z" fill="#EB95FF"/>
<path d="M13.3441 0L0.714294 7.29036L13.3441 14.5881V0Z" fill="#8935D4"/>
<path d="M0.714294 21.8785L13.3441 29.1762V14.5881L0.714294 21.8785Z" fill="#7B35C7"/>
<path d="M13.3441 14.5881V29.1762L25.9738 21.8785L13.3441 14.5881Z" fill="#843AD9"/>
<path d="M13.3441 14.588L0.714294 7.29028V21.8783L13.3441 14.588Z" fill="#6D2AA6"/>
<path d="M13.3441 14.588L25.9738 21.8783V7.29028L13.3441 14.588Z" fill="#9B43FF"/>
<path d="M5.3056 9.94538L13.3441 5.30273L21.3825 9.94538V19.2307L13.3441 23.8734L5.3056 19.2307V9.94538Z" fill="#BB59FF"/>
<g opacity="0.3">
<path d="M14.7376 6.10952L13.3441 5.30273L8.74542 7.95777L21.1478 19.37L21.3825 19.2307V12.2264L14.7376 6.10952Z" fill="#EB95FF"/>
<path d="M5.3056 13.2825V19.2306L13.3441 23.8733L15.4784 22.6411L5.3056 13.2825Z" fill="#EB95FF"/>
</g>
</svg>
