<svg width="32" height="32" viewBox="0 0 32 32" fill="none" xmlns="http://www.w3.org/2000/svg">
<path d="M17.3333 18.6673H26.6666V26.6673C26.6666 28.14 25.4727 29.334 24 29.334H17.3333V18.6673Z" fill="black"/>
<path d="M14.6666 18.6673V29.334H7.99996C6.5272 29.334 5.33329 28.14 5.33329 26.6673V18.6673H14.6666Z" fill="black"/>
<path fill-rule="evenodd" clip-rule="evenodd" d="M2.66663 12.0006C2.66663 11.2642 3.26358 10.6673 3.99996 10.6673H8.09891C6.51662 9.10173 6.12402 6.6076 7.42072 4.68516C8.89581 2.49826 11.8757 2.06109 14.0373 3.51909C14.7016 3.96719 15.2123 4.70342 15.5882 5.3576C15.7322 5.60819 15.8697 5.87076 16 6.13776C16.1302 5.87076 16.2677 5.60819 16.4117 5.3576C16.7877 4.70342 17.2983 3.96719 17.9626 3.51909C20.1242 2.06109 23.1041 2.49826 24.5792 4.68516C25.8759 6.6076 25.4833 9.10173 23.901 10.6673H28C28.7363 10.6673 29.3333 11.2642 29.3333 12.0006V14.6673C29.3333 15.4037 28.7363 16.0006 28 16.0006H3.99996C3.26358 16.0006 2.66663 15.4037 2.66663 14.6673V12.0006ZM10.3094 9.046C9.26587 8.34217 9.04769 7.04187 9.63149 6.17634C10.2153 5.31082 11.5026 5.02602 12.5461 5.72985C12.683 5.82221 12.9446 6.10939 13.2761 6.68631C13.5853 7.2243 13.8798 7.87835 14.1389 8.53319C14.264 8.84926 14.3783 9.15876 14.4796 9.44641C14.1749 9.46024 13.8451 9.47026 13.5052 9.47268C12.801 9.47769 12.0843 9.44969 11.4696 9.36456C10.8105 9.27327 10.4463 9.13836 10.3094 9.046ZM22.3684 6.17634C22.9522 7.04187 22.734 8.34217 21.6906 9.046C21.5536 9.13836 21.1894 9.27327 20.5303 9.36456C19.9157 9.44969 19.1989 9.47769 18.4947 9.47268C18.1548 9.47026 17.825 9.46024 17.5204 9.44641C17.6217 9.15876 17.7359 8.84926 17.861 8.53319C18.1202 7.87835 18.4146 7.2243 18.7238 6.68631C19.0553 6.10939 19.3169 5.82221 19.4538 5.72985C20.4973 5.02602 21.7846 5.31082 22.3684 6.17634Z" fill="black"/>
</svg>
