<svg width="66" height="64" viewBox="0 0 66 64" fill="none" xmlns="http://www.w3.org/2000/svg">
<path d="M32.4174 60.3673C48.9256 60.3673 62.308 46.9848 62.308 30.4767C62.308 13.9685 48.9256 0.58606 32.4174 0.58606C15.9093 0.58606 2.52679 13.9685 2.52679 30.4767C2.52679 46.9848 15.9093 60.3673 32.4174 60.3673Z" fill="#FFC735"/>
<path d="M32.4397 54.5536C45.7288 54.5536 56.5016 43.7808 56.5016 30.4917C56.5016 17.2027 45.7288 6.42981 32.4397 6.42981C19.1507 6.42981 8.37781 17.2027 8.37781 30.4917C8.37781 43.7808 19.1507 54.5536 32.4397 54.5536Z" fill="#FFE46A"/>
<path d="M32.4397 55.4545C18.6787 55.4545 7.4823 44.2581 7.4823 30.4971C7.4823 16.7361 18.6787 5.53967 32.4397 5.53967C46.2008 5.53967 57.3971 16.7361 57.3971 30.4971C57.3971 44.2581 46.2008 55.4545 32.4397 55.4545ZM32.4397 7.33067C19.6643 7.33067 9.2733 17.7216 9.2733 30.4971C9.2733 43.2725 19.6643 53.6635 32.4397 53.6635C45.2152 53.6635 55.6061 43.2725 55.6061 30.4971C55.6061 17.7216 45.2152 7.33067 32.4397 7.33067Z" fill="#FFF385"/>
<path d="M32.4398 50.532C43.5077 50.532 52.4799 41.5598 52.4799 30.4919C52.4799 19.4241 43.5077 10.4518 32.4398 10.4518C21.372 10.4518 12.3997 19.4241 12.3997 30.4919C12.3997 41.5598 21.372 50.532 32.4398 50.532Z" fill="#FFE46A"/>
<path d="M32.4398 51.2845C20.9785 51.2845 11.6525 41.9585 11.6525 30.4972C11.6525 19.0359 20.9785 9.70996 32.4398 9.70996C43.9011 9.70996 53.227 19.0359 53.227 30.4972C53.227 41.9585 43.9011 51.2845 32.4398 51.2845ZM32.4398 11.1989C21.7998 11.1989 13.1468 19.8519 13.1468 30.4919C13.1468 41.1319 21.7998 49.7849 32.4398 49.7849C43.0798 49.7849 51.7328 41.1319 51.7328 30.4919C51.7328 19.8519 43.0798 11.1989 32.4398 11.1989Z" fill="#FFF385"/>
<path d="M32.4398 40.2522C35.8787 41.6669 38.6394 42.3717 41.0875 43.2725C41.3365 41.3013 41.3047 38.1856 40.9285 34.4235C43.6203 31.5462 45.5067 28.7537 46.4339 26.8197C45.0774 25.9295 41.6968 25.0234 37.8234 24.2974C35.9211 20.7578 33.8758 17.7534 32.4345 16.6512C30.9985 17.7534 28.9479 20.7578 27.0456 24.2974C23.1722 25.0234 19.7915 25.9295 18.435 26.8197C19.3623 28.7537 21.2487 31.5462 23.9405 34.4235C23.559 38.1803 23.5325 41.3013 23.7815 43.2725C26.2296 42.3717 28.9903 41.6669 32.4292 40.2522H32.4398Z" fill="#FFF385"/>
<path d="M34.3735 25.6366V38.0002H32.1338V27.8159H32.0614L29.1697 29.6632V27.6107L32.2425 25.6366H34.3735Z" fill="#EFA422"/>
<path d="M38.5493 61.4418C35.9263 62.6658 33.1604 62.2843 32.3656 60.5887C31.5707 58.8931 33.0544 56.5245 35.672 55.2952C38.2949 54.0711 41.0609 54.4527 41.8557 56.1483C42.6505 57.8439 41.1669 60.2125 38.5493 61.4365V61.4418Z" fill="#FFE46A"/>
<path d="M44.5952 52.9478C46.6035 51.0561 49.2264 50.5739 50.4504 51.8721C51.6744 53.1703 51.0439 55.7614 49.0356 57.6531C47.0274 59.5448 44.4044 60.027 43.1804 58.7288C41.9564 57.4306 42.587 54.8394 44.5952 52.9478Z" fill="#FFE46A"/>
<path d="M51.2929 48.4385C52.5169 46.1123 54.7318 44.8724 56.2367 45.6672C57.7415 46.462 57.9694 48.9843 56.7454 51.3104C55.5214 53.6366 53.3064 54.8765 51.8016 54.0817C50.2967 53.2869 50.0689 50.7647 51.2929 48.4385Z" fill="#FFE46A"/>
<path d="M55.9453 42.2548C56.401 39.8015 58.0542 38.0529 59.6438 38.3496C61.2335 38.6463 62.1502 40.8718 61.6945 43.3252C61.2388 45.7785 59.5856 47.5271 57.9959 47.2304C56.4063 46.9337 55.4896 44.7082 55.9453 42.2548Z" fill="#FFE46A"/>
<path d="M58.5682 34.9584C58.3774 32.6057 59.4584 30.5975 60.9791 30.4703C62.4999 30.3431 63.8935 32.1553 64.0842 34.508C64.275 36.8607 63.194 38.8689 61.6733 38.9961C60.1472 39.118 58.7589 37.3111 58.5682 34.9584Z" fill="#FFE46A"/>
<path d="M59.1617 27.2432C58.4463 25.129 58.9815 23.0413 60.3486 22.5803C61.7157 22.1193 63.4007 23.4546 64.116 25.5688C64.8314 27.683 64.2962 29.7708 62.9291 30.2318C61.562 30.6928 59.877 29.3574 59.1617 27.2432Z" fill="#FFE46A"/>
<path d="M57.7946 19.8461C56.65 18.0869 56.6394 16.0627 57.7787 15.3209C58.9179 14.5791 60.7672 15.4004 61.9118 17.1596C63.0563 18.9188 63.0669 20.943 61.9276 21.6848C60.7884 22.4266 58.9391 21.6053 57.7946 19.8461Z" fill="#FFE46A"/>
<path d="M54.5941 13.4663C53.0892 12.1999 52.5328 10.3824 53.3541 9.40741C54.1754 8.43243 56.0565 8.67088 57.5614 9.93729C59.0663 11.2037 59.6226 13.0212 58.8013 13.9962C57.98 14.9712 56.0989 14.7327 54.5941 13.4663Z" fill="#FFE46A"/>
<path d="M49.6767 8.73982C47.9493 8.11986 46.8737 6.70507 47.2764 5.58702C47.6791 4.46897 49.4065 4.06626 51.1339 4.68622C52.8613 5.30618 53.937 6.72097 53.5343 7.83902C53.1316 8.95707 51.4041 9.35978 49.6767 8.73982Z" fill="#FFE46A"/>
<path d="M26.3302 61.4418C28.9531 62.6658 31.7191 62.2843 32.5139 60.5887C33.3087 58.8931 31.8251 56.5245 29.2075 55.2952C26.5845 54.0711 23.8186 54.4527 23.0238 56.1483C22.2289 57.8439 23.7126 60.2125 26.3302 61.4365V61.4418Z" fill="#FFE46A"/>
<path d="M20.2843 52.9478C18.276 51.0561 15.6531 50.5739 14.4291 51.8721C13.2051 53.1703 13.8356 55.7614 15.8439 57.6531C17.8521 59.5448 20.475 60.027 21.6991 58.7288C22.9231 57.4306 22.2925 54.8394 20.2843 52.9478Z" fill="#FFE46A"/>
<path d="M13.5865 48.4385C12.3625 46.1123 10.1476 44.8724 8.64274 45.6672C7.13788 46.462 6.91005 48.9843 8.13408 51.3104C9.3581 53.6366 11.573 54.8765 13.0778 54.0817C14.5827 53.2869 14.8106 50.7647 13.5865 48.4385Z" fill="#FFE46A"/>
<path d="M8.93416 42.2548C8.47846 39.8015 6.82524 38.0529 5.2356 38.3496C3.64596 38.6463 2.72926 40.8718 3.18496 43.3252C3.64066 45.7785 5.29388 47.5271 6.88352 47.2304C8.47317 46.9337 9.38986 44.7082 8.93416 42.2548Z" fill="#FFE46A"/>
<path d="M6.31129 34.9584C6.50204 32.6057 5.42106 30.5975 3.9003 30.4703C2.37424 30.3484 0.985959 32.1553 0.795201 34.508C0.604444 36.8607 1.6854 38.8689 3.20616 38.9961C4.73221 39.118 6.12053 37.3111 6.31129 34.9584Z" fill="#FFE46A"/>
<path d="M5.71784 27.2432C6.43318 25.129 5.89797 23.0413 4.53088 22.5803C3.16378 22.1193 1.47877 23.4546 0.763427 25.5688C0.0480873 27.683 0.583262 29.7708 1.95036 30.2318C3.31745 30.6928 5.0025 29.3574 5.71784 27.2432Z" fill="#FFE46A"/>
<path d="M7.08489 19.8461C8.22944 18.0869 8.24005 16.0627 7.10081 15.3209C5.96156 14.5791 4.11228 15.4004 2.96774 17.1596C1.82319 18.9188 1.81258 20.943 2.95183 21.6848C4.09107 22.4266 5.94035 21.6053 7.08489 19.8461Z" fill="#FFE46A"/>
<path d="M10.2854 13.4663C11.7903 12.1999 12.3466 10.3824 11.5253 9.40741C10.704 8.43243 8.82291 8.67088 7.31804 9.93729C5.81318 11.2037 5.25682 13.0212 6.07814 13.9962C6.89945 14.9712 8.78053 14.7327 10.2854 13.4663Z" fill="#FFE46A"/>
<path d="M15.2027 8.73982C16.9301 8.11986 18.0058 6.70507 17.603 5.58702C17.2003 4.46897 15.4729 4.06626 13.7455 4.68622C12.0181 5.30618 10.9424 6.72097 11.3451 7.83902C11.7479 8.95707 13.4753 9.35978 15.2027 8.73982Z" fill="#FFE46A"/>
<path d="M33.9075 53.5996H30.972C28.7244 53.5996 26.9025 55.4216 26.9025 57.6691V59.8522C26.9025 62.0997 28.7244 63.9217 30.972 63.9217H33.9075C36.155 63.9217 37.977 62.0997 37.977 59.8522V57.6691C37.977 55.4216 36.155 53.5996 33.9075 53.5996Z" fill="#FFAA00"/>
</svg>
