<svg width="66" height="64" viewBox="0 0 66 64" fill="none" xmlns="http://www.w3.org/2000/svg">
<path d="M32.9095 60.3673C49.4176 60.3673 62.8001 46.9848 62.8001 30.4767C62.8001 13.9685 49.4176 0.58606 32.9095 0.58606C16.4014 0.58606 3.01886 13.9685 3.01886 30.4767C3.01886 46.9848 16.4014 60.3673 32.9095 60.3673Z" fill="#B47847"/>
<path d="M32.9318 54.5536C46.2208 54.5536 56.9937 43.7808 56.9937 30.4917C56.9937 17.2027 46.2208 6.42981 32.9318 6.42981C19.6428 6.42981 8.86987 17.2027 8.86987 30.4917C8.86987 43.7808 19.6428 54.5536 32.9318 54.5536Z" fill="#EAA873"/>
<path d="M32.9318 55.4545C19.1708 55.4545 7.97437 44.2581 7.97437 30.4971C7.97437 16.7361 19.1708 5.53967 32.9318 5.53967C46.6928 5.53967 57.8892 16.7361 57.8892 30.4971C57.8892 44.2581 46.6928 55.4545 32.9318 55.4545ZM32.9318 7.33067C20.1564 7.33067 9.76537 17.7216 9.76537 30.4971C9.76537 43.2725 20.1564 53.6635 32.9318 53.6635C45.7072 53.6635 56.0982 43.2725 56.0982 30.4971C56.0982 17.7216 45.7072 7.33067 32.9318 7.33067Z" fill="#D18855"/>
<path d="M32.9318 50.532C43.9997 50.532 52.972 41.5598 52.972 30.4919C52.972 19.4241 43.9997 10.4518 32.9318 10.4518C21.864 10.4518 12.8917 19.4241 12.8917 30.4919C12.8917 41.5598 21.864 50.532 32.9318 50.532Z" fill="#EAA873"/>
<path d="M32.9319 51.2845C21.4705 51.2845 12.1446 41.9585 12.1446 30.4972C12.1446 19.0359 21.4705 9.70996 32.9319 9.70996C44.3932 9.70996 53.7191 19.0359 53.7191 30.4972C53.7191 41.9585 44.3932 51.2845 32.9319 51.2845ZM32.9319 11.1989C22.2918 11.1989 13.6389 19.8519 13.6389 30.4919C13.6389 41.1319 22.2918 49.7849 32.9319 49.7849C43.5719 49.7849 52.2248 41.1319 52.2248 30.4919C52.2248 19.8519 43.5719 11.1989 32.9319 11.1989Z" fill="#D18855"/>
<path d="M32.9318 40.2522C36.3708 41.6669 39.1314 42.3717 41.5795 43.2725C41.8285 41.3013 41.7967 38.1856 41.4205 34.4235C44.1123 31.5462 45.9987 28.7537 46.926 26.8197C45.5695 25.9295 42.1888 25.0234 38.3154 24.2974C36.4131 20.7578 34.3678 17.7534 32.9265 16.6512C31.4905 17.7534 29.4399 20.7578 27.5376 24.2974C23.6642 25.0234 20.2836 25.9295 18.9271 26.8197C19.8544 28.7537 21.7407 31.5462 24.4325 34.4235C24.051 38.1803 24.0245 41.3013 24.2735 43.2725C26.7216 42.3717 29.4823 41.6669 32.9212 40.2522H32.9318Z" fill="#D18855"/>
<path d="M33.2898 38.1693C32.4205 38.1693 31.6478 38.0204 30.9717 37.7225C30.2995 37.4247 29.7683 37.0102 29.3779 36.4789C28.9875 35.9477 28.7802 35.3339 28.7561 34.6377H31.026C31.0461 34.9717 31.1568 35.2635 31.358 35.513C31.5592 35.7585 31.8269 35.9497 32.1609 36.0865C32.495 36.2234 32.8693 36.2918 33.2838 36.2918C33.7265 36.2918 34.1189 36.2153 34.461 36.0624C34.8031 35.9054 35.0707 35.6881 35.2639 35.4104C35.4571 35.1327 35.5517 34.8127 35.5476 34.4505C35.5517 34.0762 35.4551 33.7462 35.2579 33.4605C35.0607 33.1747 34.7749 32.9514 34.4006 32.7904C34.0304 32.6294 33.5836 32.5489 33.0604 32.5489H31.9677V30.8223H33.0604C33.4911 30.8223 33.8674 30.7479 34.1893 30.599C34.5153 30.4501 34.7709 30.2408 34.956 29.9711C35.1412 29.6975 35.2317 29.3815 35.2277 29.0233C35.2317 28.6732 35.1532 28.3693 34.9922 28.1118C34.8353 27.8501 34.6119 27.6469 34.3221 27.502C34.0364 27.3571 33.7003 27.2847 33.314 27.2847C32.9357 27.2847 32.5855 27.3531 32.2636 27.4899C31.9416 27.6268 31.682 27.822 31.4848 28.0755C31.2876 28.3251 31.1829 28.6229 31.1709 28.969H29.0157C29.0318 28.2768 29.231 27.669 29.6133 27.1458C29.9997 26.6186 30.5149 26.2081 31.1588 25.9143C31.8027 25.6165 32.5252 25.4676 33.3261 25.4676C34.1511 25.4676 34.8675 25.6225 35.4752 25.9324C36.0869 26.2383 36.5598 26.6508 36.8939 27.17C37.2279 27.6892 37.3949 28.2627 37.3949 28.8905C37.399 29.5868 37.1937 30.1703 36.7792 30.6412C36.3687 31.1121 35.8294 31.42 35.1613 31.5649V31.6615C36.0306 31.7822 36.6967 32.1042 37.1595 32.6274C37.6264 33.1466 37.8578 33.7925 37.8538 34.5652C37.8538 35.2575 37.6565 35.8773 37.2621 36.4246C36.8717 36.9679 36.3324 37.3945 35.6442 37.7044C34.9601 38.0143 34.1753 38.1693 33.2898 38.1693Z" fill="#E9A975"/>
<path d="M39.0414 61.4418C36.4184 62.6658 33.6525 62.2843 32.8576 60.5887C32.0628 58.8931 33.5465 56.5245 36.1641 55.2952C38.787 54.0711 41.553 54.4527 42.3478 56.1483C43.1426 57.8439 41.659 60.2125 39.0414 61.4365V61.4418Z" fill="#EAA873"/>
<path d="M45.0873 52.9478C47.0956 51.0561 49.7185 50.5739 50.9425 51.8721C52.1665 53.1703 51.536 55.7614 49.5277 57.6531C47.5195 59.5448 44.8965 60.027 43.6725 58.7288C42.4485 57.4306 43.0791 54.8394 45.0873 52.9478Z" fill="#EAA873"/>
<path d="M51.785 48.4385C53.009 46.1123 55.2239 44.8724 56.7288 45.6672C58.2337 46.462 58.4615 48.9843 57.2375 51.3104C56.0135 53.6366 53.7986 54.8765 52.2937 54.0817C50.7888 53.2869 50.561 50.7647 51.785 48.4385Z" fill="#EAA873"/>
<path d="M56.4373 42.2548C56.893 39.8015 58.5463 38.0529 60.1359 38.3496C61.7255 38.6463 62.6422 40.8718 62.1865 43.3252C61.7308 45.7785 60.0776 47.5271 58.488 47.2304C56.8983 46.9337 55.9816 44.7082 56.4373 42.2548Z" fill="#EAA873"/>
<path d="M59.0603 34.9584C58.8695 32.6057 59.9505 30.5975 61.4712 30.4703C62.992 30.3431 64.3856 32.1553 64.5763 34.508C64.7671 36.8607 63.6861 38.8689 62.1654 38.9961C60.6393 39.118 59.251 37.3111 59.0603 34.9584Z" fill="#EAA873"/>
<path d="M59.6538 27.2432C58.9384 25.129 59.4736 23.0413 60.8407 22.5803C62.2078 22.1193 63.8928 23.4546 64.6082 25.5688C65.3235 27.683 64.7883 29.7708 63.4212 30.2318C62.0541 30.6928 60.3691 29.3574 59.6538 27.2432Z" fill="#EAA873"/>
<path d="M58.2866 19.8461C57.1421 18.0869 57.1315 16.0627 58.2708 15.3209C59.41 14.5791 61.2593 15.4004 62.4038 17.1596C63.5484 18.9188 63.5589 20.943 62.4197 21.6848C61.2805 22.4266 59.4312 21.6053 58.2866 19.8461Z" fill="#EAA873"/>
<path d="M55.0862 13.4663C53.5813 12.1999 53.0249 10.3824 53.8463 9.40741C54.6676 8.43243 56.5487 8.67088 58.0535 9.93729C59.5584 11.2037 60.1148 13.0212 59.2935 13.9962C58.4721 14.9712 56.5911 14.7327 55.0862 13.4663Z" fill="#EAA873"/>
<path d="M50.1689 8.73982C48.4414 8.11986 47.3658 6.70507 47.7685 5.58702C48.1712 4.46897 49.8986 4.06626 51.626 4.68622C53.3534 5.30618 54.4291 6.72097 54.0264 7.83902C53.6237 8.95707 51.8963 9.35978 50.1689 8.73982Z" fill="#EAA873"/>
<path d="M26.8223 61.4418C29.4452 62.6658 32.2112 62.2843 33.006 60.5887C33.8008 58.8931 32.3172 56.5245 29.6996 55.2952C27.0766 54.0711 24.3107 54.4527 23.5159 56.1483C22.721 57.8439 24.2047 60.2125 26.8223 61.4365V61.4418Z" fill="#EAA873"/>
<path d="M20.7763 52.9478C18.7681 51.0561 16.1452 50.5739 14.9212 51.8721C13.6971 53.1703 14.3277 55.7614 16.3359 57.6531C18.3442 59.5448 20.9671 60.027 22.1911 58.7288C23.4151 57.4306 22.7846 54.8394 20.7763 52.9478Z" fill="#EAA873"/>
<path d="M14.0787 48.4385C12.8546 46.1123 10.6397 44.8724 9.13487 45.6672C7.63001 46.462 7.40218 48.9843 8.62621 51.3104C9.85023 53.6366 12.0651 54.8765 13.57 54.0817C15.0748 53.2869 15.3027 50.7647 14.0787 48.4385Z" fill="#EAA873"/>
<path d="M9.42629 42.2548C8.97059 39.8015 7.31737 38.0529 5.72773 38.3496C4.13808 38.6463 3.22139 40.8718 3.67709 43.3252C4.13279 45.7785 5.78601 47.5271 7.37565 47.2304C8.96529 46.9337 9.88199 44.7082 9.42629 42.2548Z" fill="#EAA873"/>
<path d="M6.80341 34.9584C6.99417 32.6057 5.91318 30.5975 4.39243 30.4703C2.86637 30.3484 1.47809 32.1553 1.28733 34.508C1.09657 36.8607 2.17752 38.8689 3.69828 38.9961C5.22434 39.118 6.61265 37.3111 6.80341 34.9584Z" fill="#EAA873"/>
<path d="M6.20993 27.2432C6.92527 25.129 6.39007 23.0413 5.02297 22.5803C3.65588 22.1193 1.97086 23.4546 1.25552 25.5688C0.540183 27.683 1.07536 29.7708 2.44245 30.2318C3.80955 30.6928 5.49459 29.3574 6.20993 27.2432Z" fill="#EAA873"/>
<path d="M7.57696 19.8461C8.7215 18.0869 8.73212 16.0627 7.59287 15.3209C6.45363 14.5791 4.60435 15.4004 3.4598 17.1596C2.31526 18.9188 2.30465 20.943 3.44389 21.6848C4.58314 22.4266 6.43242 21.6053 7.57696 19.8461Z" fill="#EAA873"/>
<path d="M10.7775 13.4663C12.2824 12.1999 12.8387 10.3824 12.0174 9.40741C11.1961 8.43243 9.31503 8.67088 7.81017 9.93729C6.30531 11.2037 5.74895 13.0212 6.57026 13.9962C7.39158 14.9712 9.27266 14.7327 10.7775 13.4663Z" fill="#EAA873"/>
<path d="M15.6948 8.73982C17.4222 8.11986 18.4978 6.70507 18.0951 5.58702C17.6924 4.46897 15.965 4.06626 14.2376 4.68622C12.5102 5.30618 11.4345 6.72097 11.8372 7.83902C12.2399 8.95707 13.9673 9.35978 15.6948 8.73982Z" fill="#EAA873"/>
<path d="M34.3996 53.5996H31.4641C29.2166 53.5996 27.3946 55.4216 27.3946 57.6691V59.8522C27.3946 62.0997 29.2166 63.9217 31.4641 63.9217H34.3996C36.6471 63.9217 38.4691 62.0997 38.4691 59.8522V57.6691C38.4691 55.4216 36.6471 53.5996 34.3996 53.5996Z" fill="#C37C43"/>
</svg>
