<svg width="66" height="64" viewBox="0 0 66 64" fill="none" xmlns="http://www.w3.org/2000/svg">
<path d="M32.6635 60.3673C49.1716 60.3673 62.5541 46.9848 62.5541 30.4767C62.5541 13.9685 49.1716 0.58606 32.6635 0.58606C16.1553 0.58606 2.77283 13.9685 2.77283 30.4767C2.77283 46.9848 16.1553 60.3673 32.6635 60.3673Z" fill="#9C9C9C"/>
<path d="M32.6858 54.5536C45.9748 54.5536 56.7477 43.7808 56.7477 30.4917C56.7477 17.2027 45.9748 6.42981 32.6858 6.42981C19.3967 6.42981 8.62384 17.2027 8.62384 30.4917C8.62384 43.7808 19.3967 54.5536 32.6858 54.5536Z" fill="#CBCBCB"/>
<path d="M32.6858 55.4545C18.9247 55.4545 7.72833 44.2581 7.72833 30.4971C7.72833 16.7361 18.9247 5.53967 32.6858 5.53967C46.4468 5.53967 57.6432 16.7361 57.6432 30.4971C57.6432 44.2581 46.4468 55.4545 32.6858 55.4545ZM32.6858 7.33067C19.9103 7.33067 9.51933 17.7216 9.51933 30.4971C9.51933 43.2725 19.9103 53.6635 32.6858 53.6635C45.4612 53.6635 55.8522 43.2725 55.8522 30.4971C55.8522 17.7216 45.4612 7.33067 32.6858 7.33067Z" fill="#F0F0F0"/>
<path d="M32.6858 50.532C43.7537 50.532 52.7259 41.5598 52.7259 30.4919C52.7259 19.4241 43.7537 10.4518 32.6858 10.4518C21.618 10.4518 12.6457 19.4241 12.6457 30.4919C12.6457 41.5598 21.618 50.532 32.6858 50.532Z" fill="#CBCBCB"/>
<path d="M32.6858 51.2845C21.2245 51.2845 11.8986 41.9585 11.8986 30.4972C11.8986 19.0359 21.2245 9.70996 32.6858 9.70996C44.1472 9.70996 53.4731 19.0359 53.4731 30.4972C53.4731 41.9585 44.1472 51.2845 32.6858 51.2845ZM32.6858 11.1989C22.0458 11.1989 13.3928 19.8519 13.3928 30.4919C13.3928 41.1319 22.0458 49.7849 32.6858 49.7849C43.3258 49.7849 51.9788 41.1319 51.9788 30.4919C51.9788 19.8519 43.3258 11.1989 32.6858 11.1989Z" fill="#F0F0F0"/>
<path d="M32.6858 40.2522C36.1247 41.6669 38.8854 42.3717 41.3335 43.2725C41.5825 41.3013 41.5507 38.1856 41.1745 34.4235C43.8663 31.5462 45.7527 28.7537 46.6799 26.8197C45.3235 25.9295 41.9428 25.0234 38.0694 24.2974C36.1671 20.7578 34.1218 17.7534 32.6805 16.6512C31.2445 17.7534 29.1939 20.7578 27.2916 24.2974C23.4182 25.0234 20.0375 25.9295 18.681 26.8197C19.6083 28.7537 21.4947 31.5462 24.1865 34.4235C23.805 38.1803 23.7785 41.3013 24.0275 43.2725C26.4756 42.3717 29.2363 41.6669 32.6752 40.2522H32.6858Z" fill="#F0F0F0"/>
<path d="M28.5908 38.0002V36.3823L32.883 32.1746C33.2936 31.7601 33.6357 31.3918 33.9093 31.0698C34.183 30.7479 34.3883 30.436 34.5251 30.1341C34.6619 29.8323 34.7303 29.5103 34.7303 29.1682C34.7303 28.7778 34.6418 28.4438 34.4647 28.1661C34.2876 27.8844 34.0441 27.667 33.7343 27.5141C33.4244 27.3612 33.0722 27.2847 32.6778 27.2847C32.2713 27.2847 31.9151 27.3692 31.6093 27.5382C31.3034 27.7033 31.0659 27.9387 30.8969 28.2446C30.7319 28.5504 30.6494 28.9147 30.6494 29.3372H28.5183C28.5183 28.5524 28.6974 27.8703 29.0556 27.2907C29.4138 26.7112 29.9068 26.2624 30.5347 25.9445C31.1665 25.6265 31.891 25.4676 32.708 25.4676C33.537 25.4676 34.2655 25.6225 34.8933 25.9324C35.5212 26.2423 36.0082 26.6669 36.3543 27.2062C36.7044 27.7455 36.8795 28.3613 36.8795 29.0535C36.8795 29.5163 36.791 29.9711 36.6139 30.4179C36.4368 30.8646 36.1249 31.3596 35.6781 31.9029C35.2354 32.4463 34.6136 33.1043 33.8127 33.877L31.6817 36.0443V36.1288H37.0666V38.0002H28.5908Z" fill="#BBBBBB"/>
<path d="M38.7953 61.4418C36.1724 62.6658 33.4064 62.2843 32.6116 60.5887C31.8168 58.8931 33.3005 56.5245 35.9181 55.2952C38.541 54.0711 41.307 54.4527 42.1018 56.1483C42.8966 57.8439 41.4129 60.2125 38.7953 61.4365V61.4418Z" fill="#CBCBCB"/>
<path d="M44.8413 52.9478C46.8495 51.0561 49.4724 50.5739 50.6965 51.8721C51.9205 53.1703 51.2899 55.7614 49.2817 57.6531C47.2734 59.5448 44.6505 60.027 43.4265 58.7288C42.2024 57.4306 42.833 54.8394 44.8413 52.9478Z" fill="#CBCBCB"/>
<path d="M51.539 48.4385C52.763 46.1123 54.9779 44.8724 56.4828 45.6672C57.9876 46.462 58.2155 48.9843 56.9915 51.3104C55.7674 53.6366 53.5525 54.8765 52.0477 54.0817C50.5428 53.2869 50.3149 50.7647 51.539 48.4385Z" fill="#CBCBCB"/>
<path d="M56.1913 42.2548C56.647 39.8015 58.3002 38.0529 59.8899 38.3496C61.4795 38.6463 62.3962 40.8718 61.9405 43.3252C61.4848 45.7785 59.8316 47.5271 58.2419 47.2304C56.6523 46.9337 55.7356 44.7082 56.1913 42.2548Z" fill="#CBCBCB"/>
<path d="M58.8142 34.9584C58.6235 32.6057 59.7044 30.5975 61.2252 30.4703C62.746 30.3431 64.1395 32.1553 64.3303 34.508C64.5211 36.8607 63.4401 38.8689 61.9193 38.9961C60.3933 39.118 59.005 37.3111 58.8142 34.9584Z" fill="#CBCBCB"/>
<path d="M59.4077 27.2432C58.6924 25.129 59.2276 23.0413 60.5947 22.5803C61.9618 22.1193 63.6468 23.4546 64.3621 25.5688C65.0775 27.683 64.5423 29.7708 63.1752 30.2318C61.8081 30.6928 60.1231 29.3574 59.4077 27.2432Z" fill="#CBCBCB"/>
<path d="M58.0406 19.8461C56.8961 18.0869 56.8855 16.0627 58.0247 15.3209C59.164 14.5791 61.0132 15.4004 62.1578 17.1596C63.3023 18.9188 63.3129 20.943 62.1737 21.6848C61.0344 22.4266 59.1851 21.6053 58.0406 19.8461Z" fill="#CBCBCB"/>
<path d="M54.8402 13.4663C53.3353 12.1999 52.7789 10.3824 53.6002 9.40741C54.4215 8.43243 56.3026 8.67088 57.8075 9.93729C59.3123 11.2037 59.8687 13.0212 59.0474 13.9962C58.2261 14.9712 56.345 14.7327 54.8402 13.4663Z" fill="#CBCBCB"/>
<path d="M49.9228 8.73982C48.1954 8.11986 47.1198 6.70507 47.5225 5.58702C47.9252 4.46897 49.6526 4.06626 51.38 4.68622C53.1074 5.30618 54.1831 6.72097 53.7804 7.83902C53.3777 8.95707 51.6502 9.35978 49.9228 8.73982Z" fill="#CBCBCB"/>
<path d="M26.5763 61.4418C29.1992 62.6658 31.9652 62.2843 32.76 60.5887C33.5548 58.8931 32.0711 56.5245 29.4535 55.2952C26.8306 54.0711 24.0646 54.4527 23.2698 56.1483C22.475 57.8439 23.9587 60.2125 26.5763 61.4365V61.4418Z" fill="#CBCBCB"/>
<path d="M20.5303 52.9478C18.5221 51.0561 15.8992 50.5739 14.6751 51.8721C13.4511 53.1703 14.0817 55.7614 16.0899 57.6531C18.0982 59.5448 20.7211 60.027 21.9451 58.7288C23.1691 57.4306 22.5386 54.8394 20.5303 52.9478Z" fill="#CBCBCB"/>
<path d="M13.8326 48.4385C12.6086 46.1123 10.3937 44.8724 8.88884 45.6672C7.38397 46.462 7.15615 48.9843 8.38017 51.3104C9.6042 53.6366 11.8191 54.8765 13.3239 54.0817C14.8288 53.2869 15.0567 50.7647 13.8326 48.4385Z" fill="#CBCBCB"/>
<path d="M9.18026 42.2548C8.72456 39.8015 7.07134 38.0529 5.48169 38.3496C3.89205 38.6463 2.97536 40.8718 3.43106 43.3252C3.88675 45.7785 5.53997 47.5271 7.12962 47.2304C8.71926 46.9337 9.63595 44.7082 9.18026 42.2548Z" fill="#CBCBCB"/>
<path d="M6.55738 34.9584C6.74814 32.6057 5.66715 30.5975 4.14639 30.4703C2.62033 30.3484 1.23205 32.1553 1.0413 34.508C0.850538 36.8607 1.93149 38.8689 3.45225 38.9961C4.97831 39.118 6.36662 37.3111 6.55738 34.9584Z" fill="#CBCBCB"/>
<path d="M5.9639 27.2432C6.67924 25.129 6.14403 23.0413 4.77694 22.5803C3.40985 22.1193 1.72483 23.4546 1.00949 25.5688C0.294151 27.683 0.829326 29.7708 2.19642 30.2318C3.56351 30.6928 5.24856 29.3574 5.9639 27.2432Z" fill="#CBCBCB"/>
<path d="M7.33093 19.8461C8.47547 18.0869 8.48608 16.0627 7.34684 15.3209C6.20759 14.5791 4.35831 15.4004 3.21377 17.1596C2.06923 18.9188 2.05861 20.943 3.19786 21.6848C4.3371 22.4266 6.18638 21.6053 7.33093 19.8461Z" fill="#CBCBCB"/>
<path d="M10.5315 13.4663C12.0364 12.1999 12.5927 10.3824 11.7714 9.40741C10.9501 8.43243 9.069 8.67088 7.56414 9.93729C6.05927 11.2037 5.50292 13.0212 6.32423 13.9962C7.14555 14.9712 9.02663 14.7327 10.5315 13.4663Z" fill="#CBCBCB"/>
<path d="M15.4487 8.73982C17.1761 8.11986 18.2518 6.70507 17.8491 5.58702C17.4464 4.46897 15.719 4.06626 13.9916 4.68622C12.2641 5.30618 11.1885 6.72097 11.5912 7.83902C11.9939 8.95707 13.7213 9.35978 15.4487 8.73982Z" fill="#CBCBCB"/>
<path d="M34.1536 53.5996H31.218C28.9705 53.5996 27.1486 55.4216 27.1486 57.6691V59.8522C27.1486 62.0997 28.9705 63.9217 31.218 63.9217H34.1536C36.4011 63.9217 38.2231 62.0997 38.2231 59.8522V57.6691C38.2231 55.4216 36.4011 53.5996 34.1536 53.5996Z" fill="#B2B2B2"/>
</svg>
