<svg width="1920" height="1080" viewBox="0 0 1920 1080" fill="none" xmlns="http://www.w3.org/2000/svg">
<g clip-path="url(#clip0_3278_12863)">
<rect width="1920" height="1080" fill="#D5EDFF"/>
<rect y="953" width="1920" height="127" fill="#96B8ED"/>
<path d="M474.84 925.506C470.706 925.885 464.222 920.859 461.376 918.14C454.654 911.736 447.773 904.682 445.579 902.406C442.264 903.338 430.988 906.597 419.229 911.014L416.417 912.079C413.425 913.419 410.292 914.399 407.082 914.999C406.361 915.159 405.612 915.109 404.92 914.855C404.227 914.601 403.62 914.153 403.165 913.563C402.057 911.869 402.492 909.298 404.658 904.916C409.168 895.777 419.714 888.204 424.955 884.87C419.391 882.473 413.679 880.447 407.856 878.806C405.231 878.113 401.699 876.857 401.513 874.001C401.397 872.611 402.177 870.583 406.353 868.818C410.515 867.361 414.841 866.458 419.224 866.13C420.968 865.971 422.713 865.811 424.477 865.883C437.908 865.909 444.904 867.602 447.405 868.288C450.199 865.752 460.026 857.562 472.678 855.2C474.737 854.814 476.629 854.533 478.287 854.381C482.56 853.99 484.953 854.435 486.091 855.856C486.394 856.25 486.595 856.715 486.676 857.21C486.757 857.704 486.716 858.212 486.556 858.686C485.912 860.864 483.906 862.735 481.363 865.123C478.099 868.02 475.181 871.3 472.67 874.896L475.332 875.622C483.403 877.601 491.289 880.284 498.905 883.641C505.221 886.654 507.937 889.295 507.454 892.14C506.849 895.625 501.64 896.82 497.332 897.215L496.529 897.288C495.221 897.408 493.669 897.551 491.994 897.704C485.348 898.313 476.624 899.292 472.601 899.75C473.654 902.885 475.685 909.306 477.94 918.004C478.622 920.689 478.521 922.637 477.612 923.959C477.292 924.412 476.876 924.786 476.397 925.054C475.917 925.322 475.385 925.476 474.84 925.506Z" fill="#E0E0E0"/>
<path d="M426.671 882.817C420.021 879.807 413.163 877.286 406.152 875.274C398.762 873.348 400.484 870.537 404.855 868.697C410.468 866.832 416.33 865.887 422.221 865.898C439.128 865.88 445.587 868.466 445.587 868.466C445.587 868.466 456.432 857.821 470.775 855.071C476.301 854.018 483.593 853.25 482.697 856.27C481.534 860.103 473.703 863.949 467.695 873.928C470.948 875.183 483.834 877.617 496.04 883.339C508.847 889.309 503.421 892.876 494.292 893.548C485.913 894.149 468.122 896.272 468.122 896.272C468.122 896.272 470.877 903.895 474.108 916.452C476.681 926.366 466.12 920.312 460.413 914.88C452.246 907.135 443.954 898.506 443.954 898.506C443.954 898.506 430.632 902.129 416.431 907.463C406.189 911.301 398.32 915.329 404.012 903.857C409.703 892.385 426.671 882.817 426.671 882.817Z" fill="#FF80A9"/>
<path d="M460.623 910.214C456.377 906.052 445.368 892.548 445.368 892.548C445.368 892.548 418.218 903.008 411.444 905.729C404.669 908.45 402.561 907.825 403.187 906.033C399.519 914.881 407.123 911.135 416.554 907.577C430.745 902.254 444.057 898.638 444.057 898.638C444.057 898.638 452.342 907.232 460.505 914.979C464.74 919.017 471.638 923.361 473.858 921.278C469.737 921.411 464.886 914.375 460.623 910.214Z" fill="#4874D7"/>
<path d="M503.473 890.303C501.277 891.994 497.919 891.737 489.189 891.515C480.458 891.294 466.285 890.672 466.285 890.672L468.082 896.458C468.082 896.458 485.893 894.353 494.205 893.763C499.125 893.361 502.858 892.202 503.473 890.303Z" fill="#4874D7"/>
<path d="M403.127 869.42C400.326 871.076 399.942 873.472 406.179 875.109C413.184 877.101 420.037 879.601 426.684 882.589L432.168 879.128C432.168 879.128 423.813 876.329 415.521 874.508C407.944 872.835 400.844 871.815 403.127 869.42Z" fill="#4874D7"/>
<path d="M467.605 873.944C473.618 863.951 481.456 860.1 482.62 856.261C482.73 855.964 482.724 855.636 482.606 855.344C482.487 855.053 482.264 854.818 481.981 854.689C481.981 854.689 483.277 856.111 476.975 859.567C472.246 862.632 468.044 866.472 464.54 870.93C463.1 873.127 467.605 873.944 467.605 873.944Z" fill="#4874D7"/>
<path d="M1502.31 890.799C1502.03 890.825 1501.74 890.788 1501.47 890.693C1501.2 890.598 1500.95 890.445 1500.74 890.246C1499.7 889.261 1499.13 886.173 1499.05 881.097C1491.06 883.591 1482.87 885.369 1474.59 886.411C1471.13 886.955 1467.6 886.676 1464.27 885.595C1462.71 885.034 1461.29 884.121 1460.12 882.923C1458.95 881.724 1458.06 880.271 1457.52 878.672C1456.37 875.072 1457.11 870.502 1459.53 865.994C1458.21 864.038 1456.38 859.421 1460.7 851.716C1461.93 849.37 1463.72 847.379 1465.91 845.926C1468.09 844.474 1470.6 843.609 1473.19 843.411C1474.13 843.321 1475.08 843.317 1476.02 843.401C1477.29 841.408 1480.67 837.543 1488.39 836.836C1489.58 836.724 1490.78 836.692 1491.97 836.74C1493.47 836.832 1494.92 837.241 1496.25 837.94C1497.58 838.639 1498.75 839.614 1499.68 840.802C1505.08 847.068 1507.87 859.821 1507.67 869.625C1509.52 869.092 1511.41 868.719 1513.32 868.51C1515.23 868.179 1517.19 868.495 1518.91 869.41C1519.32 869.653 1519.65 870.013 1519.87 870.447C1520.09 870.881 1520.18 871.37 1520.13 871.856C1519.87 874.554 1514.25 877.378 1509.38 879.37C1508.22 882.234 1505.39 888.856 1503.45 890.346C1503.12 890.603 1502.72 890.76 1502.31 890.799Z" fill="#E0E0E0"/>
<path d="M1502.25 875.855C1502.25 875.855 1474.98 884.746 1466.44 881.131C1457.9 877.516 1459.45 869.015 1463.11 862.905C1463.11 862.905 1458.5 858.957 1463.72 849.584C1465.17 846.957 1467.37 844.841 1470.03 843.525C1472.68 842.209 1475.67 841.758 1478.57 842.231C1478.57 842.231 1481.35 835.041 1493.59 835.427C1503.79 835.753 1508.58 856.198 1507.57 868.86C1507.57 868.86 1516.47 865.626 1519.69 867.73C1522.91 869.835 1509.74 875.025 1509.74 875.025C1509.74 875.025 1505.95 884.48 1504.04 885.951C1502.12 887.423 1502.25 875.855 1502.25 875.855Z" fill="#FF80A9"/>
<path opacity="0.8" d="M1502.25 875.855C1502.25 875.855 1474.98 884.746 1466.44 881.131C1457.9 877.516 1459.45 869.015 1463.11 862.905C1463.11 862.905 1458.5 858.957 1463.72 849.584C1465.17 846.957 1467.37 844.841 1470.03 843.525C1472.68 842.209 1475.67 841.758 1478.57 842.231C1478.57 842.231 1481.35 835.041 1493.59 835.427C1503.79 835.753 1508.58 856.198 1507.57 868.86C1507.57 868.86 1516.47 865.626 1519.69 867.73C1522.91 869.835 1509.74 875.025 1509.74 875.025C1509.74 875.025 1505.95 884.48 1504.04 885.951C1502.12 887.423 1502.25 875.855 1502.25 875.855Z" fill="#3843D0"/>
<path opacity="0.1" d="M1476.26 878.805C1465.6 878.69 1461.4 874.74 1460.36 871.323C1460.13 873.44 1460.62 875.567 1461.74 877.353C1462.87 879.139 1464.56 880.476 1466.55 881.143C1475.07 884.74 1502.29 875.893 1502.29 875.893C1502.27 878.176 1502.37 880.457 1502.59 882.728C1502.63 879.824 1503.05 876.935 1503.82 874.134C1503.82 874.134 1488.46 878.926 1476.26 878.805Z" fill="black"/>
<path opacity="0.1" d="M1463.14 862.831C1463.14 862.831 1473.81 859.734 1489.91 866.964C1484.4 863.166 1478.13 860.651 1471.53 859.598C1460.33 857.726 1463.76 849.537 1463.76 849.537C1458.53 858.887 1463.14 862.831 1463.14 862.831Z" fill="black"/>
<path opacity="0.1" d="M1500.65 861.128C1493.2 846.282 1484.45 842.548 1485.64 839.797C1487.28 835.776 1493.55 835.408 1493.55 835.408C1481.3 835.022 1478.52 842.221 1478.52 842.221C1492.47 846.699 1500.65 861.128 1500.65 861.128Z" fill="black"/>
<path d="M1631.75 369.15C1637.06 369.15 1642.16 370.186 1646.84 372.009C1655.95 359.121 1671.03 350.667 1688.09 350.667C1709.86 350.667 1728.33 364.384 1735.4 383.53C1739.53 381.831 1744.09 380.878 1748.81 380.878C1768.24 380.878 1784 396.502 1784 415.772C1784 435.043 1768.24 450.667 1748.81 450.667H1631.75C1609.06 450.667 1590.67 432.432 1590.67 409.929C1590.67 387.426 1609.06 369.191 1631.75 369.191V369.15Z" fill="white"/>
<path d="M415.965 180.881C404.21 180.881 393.021 183.187 382.679 187.236C362.561 158.726 329.332 140 291.638 140C243.603 140 202.801 170.366 187.26 212.766C178.105 208.998 168.102 206.917 157.591 206.917C114.699 206.917 80 241.501 80 284.125C80 326.75 114.755 361.333 157.591 361.333H415.965C466.035 361.333 506.667 320.902 506.667 271.079C506.667 221.257 466.035 180.825 415.965 180.825V180.881Z" fill="white"/>
<path d="M731.923 874.878C747.026 855.909 760.614 835.909 772.413 815.283C777.675 806.141 782.585 796.899 787.126 787.589C788.772 784.221 790.399 780.838 791.967 777.406C792.657 775.942 793.283 774.477 793.953 772.997C784.768 765.377 788.403 767.208 774 769C750.5 783 733.266 785.679 716 791C687.944 799.971 649.523 793.4 623.18 794.894C578.218 796.731 539.855 769.776 507.5 749.5C457.973 721.033 446.245 708.826 408.451 700.679C370.657 692.532 324.663 697.075 279.794 723.774C250.674 741.094 222.748 763.73 193.688 781.253C164.628 798.775 140.879 803.298 119.57 796.104C108.972 792.401 91.0428 780.225 79.5835 769.853C52.4151 745.381 32.2466 712.312 7.0036 685.875C-34.6706 642.294 -64.5188 639.467 -76.7936 635.136C-105.301 624.424 -138.652 622.315 -174.479 628.96C-192.471 632.509 -210.822 637.439 -228.128 638.502C-239.165 639.068 -249.735 638.346 -259.681 636.347C-256.171 646.316 -252.444 656.194 -248.499 665.981C-246.961 669.7 -245.398 673.388 -243.791 677.062C-242.949 678.932 -242.151 680.815 -241.284 682.654C-234.755 697.231 -227.638 711.533 -220.01 725.495C-205.006 752.899 -165.256 872.48 -146.874 896.745C41.985 945.694 109.244 979.882 315.5 972C405.524 968.562 627.808 1057.25 697.591 1016.92C750.533 986.183 694.842 921.473 731.923 874.878Z" fill="#B8D5F7"/>
<path d="M610 874.937C584.615 869.655 569.267 857.195 525.966 826.363C501.613 809.009 476.74 791.174 454.157 771.37C425.911 746.615 374.715 730.556 325.073 753.091L324.667 753.264C290.815 765.894 252.372 790.697 202.178 825.396C182.513 839.621 161.605 848.458 142.151 850.766C121.235 853.546 102.245 850.5 86.8597 841.896C74.8423 835.082 65.3538 825.022 55.9679 814.996L-6.12782 748.927C-32.6131 720.746 -67.2683 696.17 -110.399 692.4C-146.027 689.308 -186.415 699.977 -226.611 712.231C-224.36 716.592 -222.179 720.997 -219.809 725.253C-204.806 752.657 -162.139 864.707 -143.757 888.972C-22.4482 1049.92 161.239 914.525 362.905 1009.64C452.928 1006.2 626.313 1059.08 696.096 1018.74C748.832 988.292 694.837 921.518 731.874 874.937C738.681 866.399 745.181 857.64 751.347 848.698C697.639 869.336 666.077 886.495 610 874.937Z" fill="#96B8ED"/>
<path d="M325.148 703.84C268.436 714.505 209.061 781.334 155.343 793.923C109.894 804.567 81.6399 770.338 4.04954 682.559C4.04954 682.559 56.6656 751.401 90.0325 783.102C115.694 807.495 134.816 813.332 177.15 796.287C222.494 778.025 265.715 725.53 325.148 703.84Z" fill="#FAFAFA"/>
<path d="M3.84844 759.545C-2.13145 753.159 -23.8868 722.082 -53.4418 706.928C-82.9968 691.774 -111.418 685.092 -153.779 694.227C-153.779 694.227 -109.932 691.007 -75.9506 704.541C-45.034 716.978 -18.1494 735.509 3.84844 759.545Z" fill="#FAFAFA"/>
<path d="M400.706 745.147C386.342 742.9 360.781 738.54 318.894 757.891C277.008 777.241 252.193 794.824 214.198 820.864C176.204 846.904 153.053 848.768 153.053 848.768C153.053 848.768 188.979 833.837 220.828 809.672C252.678 785.506 286.933 762.472 322.887 749.6C358.842 736.728 377.779 737.73 400.706 745.147Z" fill="#FAFAFA"/>
<path d="M579.446 878.549C564.343 859.581 550.755 839.58 538.956 818.954C533.694 809.813 528.784 800.57 524.243 791.26C522.597 787.893 520.97 784.509 519.402 781.077C518.712 779.614 518.086 778.148 517.416 776.669C526.601 769.049 565.042 789.468 579.446 791.26C596.045 793.368 618.234 793.245 635.5 798.566C663.556 807.536 723.31 839.343 719 818.954C763.962 820.791 770.988 771.915 803.342 751.639C834.149 732.342 865.124 712.497 902.918 704.351C940.713 696.204 986.707 700.747 1031.57 727.446C1060.7 744.765 1088.62 767.402 1117.68 784.924C1146.74 802.447 1170.49 806.969 1191.8 799.776C1202.4 796.073 1220.33 783.897 1231.79 773.525C1258.95 749.052 1279.12 715.984 1304.37 689.546C1346.04 645.965 1375.89 643.138 1388.16 638.808C1416.67 628.095 1450.02 625.987 1485.85 632.632C1503.84 636.18 1522.19 641.11 1539.5 642.174C1550.53 642.739 1561.05 651.499 1571 649.5C1567.49 659.469 1563.81 659.866 1559.87 669.653C1558.33 673.371 1556.77 677.06 1555.16 680.734C1554.32 682.603 1553.52 684.487 1552.65 686.326C1546.12 700.903 1539.01 715.204 1531.38 729.167C1516.38 756.57 1476.63 876.151 1458.24 900.417C1269.38 949.366 1146.91 996.132 940.654 988.25C850.63 984.813 683.561 1060.93 613.778 1020.59C560.837 989.854 616.527 925.144 579.446 878.549Z" fill="#B8D5F7"/>
<path d="M698.848 868.556C724.233 863.273 742.103 860.866 785.403 830.034C809.757 812.68 834.629 794.845 857.213 775.042C885.458 750.286 936.654 734.228 986.297 756.763L986.702 756.935C1020.55 769.566 1059 794.368 1109.19 829.067C1128.86 843.293 1149.76 852.129 1169.22 854.438C1190.13 857.218 1209.12 854.172 1224.51 845.568C1236.53 838.754 1246.02 828.694 1255.4 818.668L1317.5 752.599C1343.98 724.418 1378.64 699.841 1421.77 696.072C1457.4 692.98 1497.78 703.649 1537.98 715.903C1535.73 720.263 1533.55 724.668 1531.18 728.925C1516.18 756.329 1473.51 868.379 1455.13 892.644C1333.82 1053.59 1457.07 928.384 1255.4 1023.5C1165.38 1020.06 647.783 1075.33 578 1035C525.264 1004.55 587.536 926.581 550.5 880C543.693 871.462 557.666 853.942 551.5 845C605.208 865.638 642.771 880.114 698.848 868.556Z" fill="#96B8ED"/>
<path d="M986.221 707.511C1042.93 718.176 1102.31 785.006 1156.03 797.594C1201.48 808.238 1229.73 774.009 1307.32 686.23C1307.32 686.23 1254.7 755.072 1221.34 786.774C1195.68 811.166 1176.55 817.004 1134.22 799.959C1088.88 781.696 1045.65 729.202 986.221 707.511Z" fill="#FAFAFA"/>
<path d="M1307.52 763.216C1313.5 756.83 1335.26 725.754 1364.81 710.599C1394.37 695.445 1422.79 688.764 1465.15 697.898C1465.15 697.898 1421.3 694.678 1387.32 708.212C1356.4 720.649 1329.52 739.18 1307.52 763.216Z" fill="#FAFAFA"/>
<path d="M910.664 748.818C925.028 746.572 950.589 742.212 992.475 761.563C1034.36 780.913 1059.18 798.496 1097.17 824.536C1135.17 850.576 1158.32 852.44 1158.32 852.44C1158.32 852.44 1122.39 837.509 1090.54 813.343C1058.69 789.178 1024.44 766.143 988.482 753.272C952.528 740.4 933.59 741.402 910.664 748.818Z" fill="#FAFAFA"/>
<path d="M576.837 856.482C533.918 839.762 466 780.5 438.5 760C487.741 790.031 522.506 819.908 567.836 847.09C604.345 863.382 599.45 864.011 642.725 869.756C686 875.5 619.756 873.203 576.837 856.482Z" fill="#FAFAFA"/>
<path d="M2380.44 882.549C2395.54 863.581 2409.13 843.58 2420.93 822.954C2426.19 813.813 2431.1 804.57 2435.64 795.26C2437.29 791.893 2438.92 788.509 2440.49 785.077C2441.18 783.614 2441.8 782.148 2442.47 780.669C2433.29 773.049 2419.4 771.297 2404.99 773.089C2388.39 775.197 2370.88 781.485 2353.62 786.807C2325.56 795.777 2298.04 801.071 2271.7 802.566C2226.74 804.402 2188.9 775.915 2156.55 755.639C2125.74 736.342 2094.76 716.498 2056.97 708.351C2019.17 700.204 1973.18 704.747 1928.31 731.446C1899.19 748.765 1871.27 771.402 1842.21 788.924C1813.15 806.447 1789.4 810.969 1768.09 803.776C1757.49 800.073 1739.56 787.897 1728.1 777.525C1700.93 753.052 1680.76 719.984 1655.52 693.546C1613.85 649.966 1584 647.138 1571.72 642.808C1543.22 632.095 1467.33 623.355 1431.5 630C1413.51 633.548 1437.7 645.11 1420.39 646.174C1409.35 646.739 1398.78 646.017 1388.84 644.019C1392.35 653.988 1396.07 663.866 1400.02 673.653C1401.56 677.371 1403.12 681.06 1404.73 684.734C1405.57 686.603 1406.37 688.487 1407.23 690.326C1413.76 704.903 1439.87 670.772 1447.5 684.734C1462.5 712.138 1488.62 676.235 1507 700.5C1695.86 749.449 1778.48 1000.13 1984.73 992.25C2074.76 988.813 2276.33 1064.93 2346.11 1024.59C2399.05 993.854 2343.36 929.144 2380.44 882.549Z" fill="#B8D5F7"/>
<path d="M2261.04 872.556C2235.65 867.273 2217.78 864.866 2174.48 834.034C2150.13 816.68 2125.26 798.845 2102.67 779.042C2074.43 754.286 2023.23 738.228 1973.59 760.763L1973.19 760.935C1939.33 773.566 1900.89 798.368 1850.7 833.067C1831.03 847.293 1810.12 856.129 1790.67 858.438C1769.75 861.218 1750.76 858.172 1735.38 849.568C1723.36 842.754 1713.87 832.694 1704.49 822.668L1642.39 756.599C1615.9 728.418 1572.13 705.769 1529 702C1355.5 690.5 1462.1 707.649 1421.91 719.903C1424.16 724.263 1426.34 728.668 1428.71 732.925C1443.71 760.329 1321.62 941.235 1340 965.5C1461.31 1126.44 1809.76 922.197 2011.42 1017.31C2101.45 1013.87 2274.83 1066.75 2344.61 1026.42C2397.35 995.963 2343.36 929.19 2380.39 882.609C2387.2 874.071 2393.7 865.312 2399.86 856.37C2346.16 877.008 2317.12 884.114 2261.04 872.556Z" fill="#96B8ED"/>
<path d="M1973.67 711.511C1916.95 722.176 1857.58 789.006 1803.86 801.594C1758.41 812.238 1730.16 778.009 1652.57 690.23C1652.57 690.23 1705.18 759.072 1738.55 790.774C1764.21 815.166 1783.33 821.004 1825.67 803.959C1871.01 785.696 1914.23 733.202 1973.67 711.511Z" fill="#FAFAFA"/>
<path d="M2049.22 752.818C2034.86 750.572 2009.3 746.212 1967.41 765.563C1925.53 784.913 1900.71 802.496 1862.72 828.536C1824.72 854.576 1801.57 856.44 1801.57 856.44C1801.57 856.44 1837.5 841.509 1869.35 817.343C1901.2 793.178 1935.45 770.143 1971.41 757.272C2007.36 744.4 2026.3 745.402 2049.22 752.818Z" fill="#FAFAFA"/>
<path d="M885.5 709.5C828.788 720.165 808.5 812 653.589 812C584.5 812 534.5 787.5 456.5 719C456.5 719 566.002 793.5 653.589 793.5C699 793.5 704.166 795.545 746.5 778.5C833 742.227 826.067 731.19 885.5 709.5Z" fill="#FAFAFA"/>
<ellipse cx="7.63587" cy="7.73283" rx="7.63587" ry="7.73283" transform="matrix(0.995977 -0.0896387 0.0847398 0.996406 105 909.369)" fill="white"/>
<ellipse cx="7.63587" cy="7.73283" rx="7.63587" ry="7.73283" transform="matrix(0.995977 -0.0896387 0.0847398 0.996406 1493 779.369)" fill="white"/>
<ellipse cx="7.63587" cy="7.73283" rx="7.63587" ry="7.73283" transform="matrix(0.995977 -0.0896387 0.0847398 0.996406 294 848.369)" fill="white"/>
<g opacity="0.5">
<path d="M236.13 964.142C231.661 964.544 224.647 959.15 221.567 956.231C214.294 949.358 206.848 941.788 204.474 939.345C200.892 940.342 188.704 943.826 175.994 948.551L172.956 949.691C169.722 951.125 166.336 952.173 162.865 952.814C162.086 952.984 161.277 952.929 160.528 952.656C159.779 952.384 159.122 951.903 158.63 951.27C157.43 949.453 157.899 946.696 160.236 942C165.104 932.205 176.499 924.094 182.162 920.523C176.144 917.948 169.968 915.771 163.67 914.006C160.833 913.26 157.013 911.91 156.809 908.848C156.682 907.357 157.524 905.183 162.038 903.294C166.536 901.736 171.212 900.772 175.95 900.424C177.836 900.255 179.721 900.085 181.628 900.164C196.149 900.204 203.715 902.026 206.419 902.764C209.437 900.047 220.054 891.275 233.73 888.754C235.957 888.342 238.002 888.042 239.794 887.881C244.414 887.465 247.001 887.944 248.233 889.47C248.56 889.892 248.778 890.391 248.866 890.921C248.954 891.451 248.91 891.995 248.738 892.505C248.043 894.839 245.876 896.844 243.129 899.401C239.603 902.504 236.451 906.019 233.74 909.873L236.618 910.653C245.345 912.783 253.874 915.667 262.111 919.274C268.941 922.51 271.881 925.345 271.361 928.395C270.709 932.131 265.079 933.408 260.422 933.827L259.554 933.905C258.14 934.032 256.461 934.184 254.651 934.347C247.466 934.993 238.035 936.035 233.687 936.523C234.828 939.885 237.029 946.772 239.475 956.101C240.214 958.98 240.106 961.069 239.125 962.486C238.779 962.971 238.331 963.372 237.812 963.659C237.294 963.945 236.719 964.11 236.13 964.142Z" fill="#E0E0E0"/>
<path d="M184.021 918.302C176.828 915.059 169.413 912.342 161.832 910.171C153.842 908.092 155.699 905.078 160.42 903.111C166.484 901.118 172.817 900.113 179.184 900.135C197.457 900.145 204.441 902.931 204.441 902.931C204.441 902.931 216.145 891.525 231.642 888.597C237.614 887.477 245.493 886.664 244.53 889.904C243.279 894.016 234.821 898.13 228.344 908.83C231.861 910.182 245.792 912.817 258.993 918.978C272.844 925.407 266.985 929.227 257.119 929.932C248.065 930.563 228.841 932.812 228.841 932.812C228.841 932.812 231.83 940.998 235.341 954.48C238.138 965.124 226.714 958.609 220.537 952.77C211.699 944.444 202.723 935.169 202.723 935.169C202.723 935.169 188.332 939.035 172.992 944.736C161.928 948.837 153.431 953.147 159.564 940.844C165.697 928.542 184.021 918.302 184.021 918.302Z" fill="#FF80A9"/>
<path d="M220.722 947.747C216.125 943.269 204.202 928.746 204.202 928.746C204.202 928.746 174.868 939.936 167.549 942.847C160.23 945.758 157.95 945.083 158.624 943.159C154.672 952.656 162.887 948.646 173.077 944.84C188.41 939.146 202.795 935.286 202.795 935.286C202.795 935.286 211.765 944.53 220.601 952.865C225.187 957.209 232.651 961.886 235.047 959.653C230.592 959.789 225.337 952.223 220.722 947.747Z" fill="#4874D7"/>
<path d="M267.076 926.398C264.703 928.217 261.071 927.934 251.629 927.681C242.187 927.428 226.857 926.733 226.857 926.733L228.81 932.972C228.81 932.972 248.069 930.733 257.057 930.111C262.378 929.687 266.413 928.444 267.076 926.398Z" fill="#4874D7"/>
<path d="M158.543 903.97C155.518 905.743 155.108 908.316 161.852 910.084C169.428 912.235 176.839 914.931 184.029 918.151L189.952 914.443C189.952 914.443 180.916 911.424 171.949 909.454C163.757 907.644 156.079 906.537 158.543 903.97Z" fill="#4874D7"/>
<path d="M228.307 908.861C234.788 898.151 243.25 894.034 244.502 889.918C244.619 889.599 244.613 889.248 244.484 888.934C244.356 888.621 244.114 888.37 243.808 888.231C243.808 888.231 245.211 889.757 238.407 893.455C233.303 896.734 228.769 900.846 224.991 905.623C223.439 907.976 228.307 908.861 228.307 908.861Z" fill="#4874D7"/>
</g>
<g opacity="0.5">
<path d="M1663.44 941.946C1663.13 941.973 1662.82 941.934 1662.53 941.831C1662.23 941.729 1661.96 941.565 1661.74 941.351C1660.61 940.295 1659.99 936.984 1659.9 931.542C1651.27 934.208 1642.42 936.107 1633.47 937.216C1629.73 937.797 1625.91 937.494 1622.32 936.332C1620.63 935.729 1619.09 934.749 1617.82 933.463C1616.56 932.178 1615.6 930.62 1615 928.904C1613.76 925.044 1614.56 920.146 1617.17 915.315C1615.75 913.217 1613.76 908.267 1618.42 900.011C1619.75 897.497 1621.69 895.364 1624.05 893.809C1626.41 892.254 1629.12 891.329 1631.92 891.119C1632.94 891.023 1633.96 891.02 1634.98 891.111C1636.34 888.976 1640 884.835 1648.34 884.085C1649.63 883.966 1650.92 883.932 1652.22 883.985C1653.83 884.085 1655.4 884.524 1656.84 885.275C1658.27 886.026 1659.54 887.072 1660.55 888.346C1666.4 895.069 1669.42 908.743 1669.21 919.252C1671.21 918.683 1673.25 918.284 1675.31 918.062C1677.38 917.709 1679.5 918.05 1681.36 919.032C1681.8 919.293 1682.17 919.68 1682.4 920.145C1682.64 920.61 1682.74 921.134 1682.69 921.655C1682.41 924.548 1676.33 927.57 1671.07 929.701C1669.81 932.77 1666.76 939.866 1664.66 941.462C1664.31 941.736 1663.88 941.904 1663.44 941.946Z" fill="#E0E0E0"/>
<path d="M1663.36 925.948C1663.36 925.948 1633.92 935.439 1624.68 931.547C1615.45 927.655 1617.12 918.538 1621.05 911.99C1621.05 911.99 1616.07 907.747 1621.7 897.7C1623.25 894.884 1625.63 892.618 1628.5 891.211C1631.37 889.804 1634.59 889.324 1637.73 889.837C1637.73 889.837 1640.73 882.129 1653.94 882.564C1664.97 882.931 1670.18 904.871 1669.1 918.453C1669.1 918.453 1678.72 914.999 1682.2 917.262C1685.68 919.525 1671.45 925.07 1671.45 925.07C1671.45 925.07 1667.38 935.207 1665.31 936.782C1663.25 938.358 1663.36 925.948 1663.36 925.948Z" fill="#FF80A9"/>
<path opacity="0.8" d="M1663.36 925.948C1663.36 925.948 1633.92 935.439 1624.68 931.547C1615.45 927.655 1617.12 918.538 1621.05 911.99C1621.05 911.99 1616.07 907.747 1621.7 897.7C1623.25 894.884 1625.63 892.618 1628.5 891.211C1631.37 889.804 1634.59 889.324 1637.73 889.837C1637.73 889.837 1640.73 882.129 1653.94 882.564C1664.97 882.931 1670.18 904.871 1669.1 918.453C1669.1 918.453 1678.72 914.999 1682.2 917.262C1685.68 919.525 1671.45 925.07 1671.45 925.07C1671.45 925.07 1667.38 935.207 1665.31 936.782C1663.25 938.358 1663.36 925.948 1663.36 925.948Z" fill="#3843D0"/>
<path opacity="0.1" d="M1635.25 929.059C1623.72 928.917 1619.18 924.665 1618.05 920.99C1617.8 923.265 1618.33 925.553 1619.55 927.474C1620.77 929.395 1622.61 930.835 1624.76 931.555C1633.98 935.435 1663.39 925.973 1663.39 925.973C1663.38 928.427 1663.49 930.879 1663.73 933.32C1663.77 930.199 1664.21 927.095 1665.04 924.085C1665.04 924.085 1648.44 929.209 1635.25 929.059Z" fill="black"/>
<path opacity="0.1" d="M1621.07 911.941C1621.07 911.941 1632.6 908.635 1650.02 916.421C1644.05 912.336 1637.27 909.627 1630.14 908.485C1618.03 906.457 1621.72 897.676 1621.72 897.676C1616.09 907.7 1621.07 911.941 1621.07 911.941Z" fill="black"/>
<path opacity="0.1" d="M1661.63 910.161C1653.56 894.23 1644.1 890.212 1645.38 887.265C1647.15 882.956 1653.92 882.572 1653.92 882.572C1640.69 882.137 1637.69 889.851 1637.69 889.851C1652.77 894.676 1661.63 910.161 1661.63 910.161Z" fill="black"/>
</g>
<path opacity="0.5" d="M1104.72 906.344C1104.72 906.344 1157.66 931.672 1243.99 926.246C1328.76 920.827 1477.35 870.988 1544.41 872.645C1544.41 872.645 1495.43 862.835 1378.92 888.091C1237.43 918.761 1207.07 932.225 1104.72 906.344Z" fill="#FAFAFA"/>
</g>
<defs>
<clipPath id="clip0_3278_12863">
<rect width="1920" height="1080" fill="white"/>
</clipPath>
</defs>
</svg>
