<svg width="386" height="368" viewBox="0 0 386 368" fill="none" xmlns="http://www.w3.org/2000/svg">
<path d="M175.646 284.288C171.744 273.934 138.474 249.57 142.558 239.121C148.783 223.254 197.009 222.197 216.572 214.796C249.015 202.499 252.805 206.076 268.463 229.092C295.917 269.46 284.624 296.967 252.194 309.261C219.751 321.558 185.488 310.377 175.646 284.288Z" fill="#ADBED9"/>
<path d="M119.291 55.7582C131.208 43.4041 170.172 65.3965 187.345 76.0784C195.736 74.6011 206.578 73.9374 219.016 73.8937C231.439 73.738 242.308 74.2424 250.752 75.5804C267.582 64.6327 305.808 42.0454 318.122 54.1938C330.343 66.2652 317.154 99.7786 310.348 114.705C318.915 128.895 322.215 144.471 322.437 157.905C322.63 169.52 321.449 181.137 318.885 192.773C313.886 215.461 296.459 232.995 273.976 237.799C256.608 241.505 239.204 243.421 221.781 243.557C204.359 243.693 186.904 242.053 169.413 238.623C146.772 234.184 128.783 216.929 123.038 194.313C120.094 182.734 118.545 171.132 118.353 159.518C118.131 146.083 120.927 130.453 129.028 116.139C121.754 101.33 107.463 68.0162 119.291 55.7582Z" fill="#ADBED9"/>
<path d="M154.943 155.017C155.101 147.33 160.357 141.248 166.68 141.439C173.002 141.631 178.009 148.018 177.851 155.705C177.693 163.392 172.437 169.474 166.114 169.282C159.791 169.091 154.785 162.703 154.943 155.017Z" fill="#446993"/>
<path d="M241.359 157.577C241.516 149.89 246.772 143.808 253.095 144C259.418 144.192 264.424 150.579 264.266 158.266C264.108 165.953 258.852 172.034 252.53 171.843C246.207 171.651 241.201 165.264 241.359 157.577Z" fill="#446993"/>
<path d="M206.803 82.2249C207.118 101.453 212.904 116.993 219.708 116.941C226.525 116.885 231.803 101.264 231.501 82.0328C231.455 79.4044 231.309 76.8315 231.065 74.3718C223.034 74.0678 215.001 74.1272 206.985 74.5737C206.816 77.0416 206.756 79.5965 206.803 82.2249Z" fill="#446993"/>
<path d="M233.163 75.6946C233.477 94.9024 239.256 110.455 246.076 110.4C252.64 110.355 257.789 95.8042 257.875 77.5494C253.614 76.4609 249.212 75.7001 244.715 75.2832C240.866 74.9269 237.008 74.6453 233.152 74.4792C233.147 74.8867 233.155 75.2907 233.15 75.6982L233.163 75.6946Z" fill="#446993"/>
<path d="M180.273 78.0198C180.922 96.3392 186.559 110.884 193.14 110.849C199.958 110.794 205.232 95.1668 204.915 75.9473C204.903 75.5298 204.899 75.1395 204.873 74.7255C200.462 74.9969 196.044 75.4008 191.624 75.9066C187.744 76.3416 183.944 77.0745 180.26 78.0234L180.273 78.0198Z" fill="#446993"/>
<path d="M134.027 85.1978C134.027 85.1978 132.133 89.721 131.898 94.775C131.676 99.4485 134.514 102.989 138.17 104.454C145.672 95.5954 154.992 88.3424 165.568 83.2658C165.42 80.7368 164.34 78.2526 162.268 76.395C153.959 68.9408 142.519 60.9119 134.562 64.2764C120.708 70.1523 134.031 85.2113 134.031 85.2113L134.027 85.1978Z" fill="white"/>
<path d="M304.367 83.8226C304.367 83.8226 306.401 88.3167 306.808 93.3597C307.187 98.0327 304.468 101.614 300.852 103.127C293.058 94.3903 283.511 87.2804 272.779 82.3719C272.843 79.8303 273.85 77.3422 275.851 75.4606C283.908 67.8762 295.09 59.6641 303.156 62.902C317.193 68.5564 304.367 83.8226 304.367 83.8226Z" fill="white"/>
<path d="M320.404 51.8161C313.944 45.4381 302.309 45.863 284.851 53.1326C272.181 58.4032 259.079 66.2265 249.977 72.1007C241.888 70.9148 231.517 70.3943 218.966 70.5549C206.4 70.6036 196.049 71.2818 188 72.5955C178.723 66.8653 165.379 59.2567 152.525 54.1729C134.839 47.1825 123.193 46.9282 116.931 53.4111C104.408 66.3905 116.406 97.4996 125.311 115.996C116.328 132.677 114.909 149.493 115.066 159.536C115.263 171.381 116.866 183.346 119.861 195.114C122.842 206.829 128.98 217.398 137.64 225.687C146.318 233.985 157.093 239.593 168.813 241.888C186.426 245.343 204.264 247.026 221.828 246.881C239.391 246.737 257.171 244.779 274.676 241.052C275.679 240.843 276.671 240.594 277.646 240.334C288.12 237.549 297.626 232.06 305.308 224.358C313.701 215.945 319.501 205.276 322.089 193.517C324.693 181.71 325.917 169.719 325.72 157.874C325.563 147.831 323.582 131.034 314.058 114.502C322.368 95.8959 333.362 64.6058 320.404 51.8161ZM319.137 157.927C319.324 169.253 318.16 180.72 315.663 192.019C311.154 212.473 295.681 228.646 275.856 233.919C275.001 234.146 274.125 234.35 273.246 234.54C256.176 238.181 238.829 240.096 221.705 240.225C204.581 240.354 187.183 238.714 169.995 235.349C148.8 231.178 131.606 214.756 126.212 193.498C123.354 182.244 121.819 170.798 121.632 159.472C121.422 146.934 123.877 122.979 142.526 103.437C143.775 102.118 143.74 100.009 142.425 98.7336C141.11 97.4583 139.025 97.4759 137.776 98.7949C134.547 102.178 131.763 105.676 129.379 109.226C117.802 84.012 114.878 65.0859 121.657 58.0738C128.209 51.2818 149.751 57.6531 178.685 74.6815C173.549 76.2362 168.65 78.0904 164.096 80.2157C162.456 80.9856 161.741 82.9607 162.516 84.6262C163.291 86.2917 165.25 87.033 166.89 86.2631C171.341 84.1798 176.166 82.3739 181.216 80.8712C189.25 78.4877 201.984 77.2483 219.086 77.1974C236.158 76.9805 248.93 78.0232 257.034 80.2788C262.135 81.6932 267.012 83.4431 271.527 85.4487C272.242 85.7664 272.999 85.8118 273.693 85.6271C274.628 85.3783 275.438 84.7133 275.851 83.7472C276.573 82.0608 275.805 80.1031 274.132 79.3584C269.504 77.3101 264.547 75.5237 259.373 74.0558C287.737 56.5873 309.081 49.8802 315.836 56.5571C322.84 63.4722 320.537 82.4392 309.764 107.823C307.25 104.313 304.364 100.859 301.023 97.5249C299.718 96.2325 297.643 96.233 296.377 97.542C295.11 98.8509 295.129 100.95 296.434 102.242C315.729 121.486 318.944 145.399 319.154 157.937L319.137 157.927Z" fill="#446993"/>
<path d="M155.462 181.528C155.209 181.596 154.934 181.639 154.649 181.643L136.553 181.783C134.74 181.8 133.239 180.316 133.206 178.486C133.173 176.656 134.617 175.158 136.443 175.136L154.539 174.996C156.352 174.979 157.853 176.463 157.886 178.293C157.917 179.849 156.879 181.152 155.462 181.528Z" fill="#446993"/>
<path d="M140.929 198.831C139.326 199.256 137.62 198.392 137.008 196.804C136.349 195.097 137.194 193.18 138.88 192.53L153.59 186.874C155.276 186.224 157.184 187.093 157.842 188.799C158.501 190.506 157.656 192.424 155.97 193.074L141.259 198.729C141.139 198.761 141.036 198.803 140.929 198.831Z" fill="#446993"/>
<path d="M281.69 180.502C281.436 180.569 281.162 180.613 280.876 180.616L262.794 180.753C260.981 180.771 259.48 179.286 259.447 177.456C259.414 175.626 260.858 174.128 262.684 174.107L280.767 173.97C282.58 173.952 284.08 175.437 284.113 177.267C284.145 178.822 283.106 180.126 281.69 180.502Z" fill="#446993"/>
<path d="M278.676 197.729C278.062 197.892 277.383 197.869 276.72 197.639L261.819 192.215C260.107 191.597 259.208 189.69 259.805 187.966C260.402 186.242 262.282 185.352 263.994 185.97L278.895 191.394C280.607 192.013 281.505 193.919 280.909 195.643C280.537 196.713 279.679 197.463 278.663 197.732L278.676 197.729Z" fill="#446993"/>
<path d="M184.807 127.603C184.553 127.671 184.278 127.714 183.993 127.718L174.509 127.788C172.697 127.806 171.196 126.32 171.163 124.488C171.13 122.656 172.574 121.156 174.4 121.135L183.883 121.065C185.696 121.047 187.196 122.533 187.23 124.365C187.261 125.922 186.223 127.227 184.807 127.603Z" fill="white"/>
<path d="M247.299 128.523C247.045 128.59 246.771 128.634 246.485 128.638L237.002 128.708C235.189 128.725 233.689 127.24 233.655 125.407C233.622 123.575 235.066 122.076 236.892 122.054L246.376 121.984C248.188 121.967 249.689 123.452 249.722 125.284C249.753 126.842 248.715 128.147 247.299 128.523Z" fill="white"/>
<path d="M190.425 198.933C192.208 201.578 194.474 203.732 197.067 205.233C199.219 206.475 201.575 207.256 204.109 207.467C214.429 208.366 223.669 199.529 225.637 187.33C225.672 187.191 225.696 187.068 225.717 186.932C225.84 186.218 225.906 185.504 225.965 184.763C226.997 171.261 218.185 168.671 207.162 167.712C196.122 166.743 187.04 167.792 186.022 181.291C185.512 187.982 187.226 194.214 190.442 198.943L190.425 198.933Z" fill="#446993"/>
<path d="M197.064 205.239C199.214 206.48 201.57 207.261 204.103 207.472C214.419 208.37 223.657 199.537 225.625 187.344C222.602 185.465 219.188 184.473 215.625 184.637C205.917 185.1 198.281 193.927 197.064 205.239Z" fill="#FD80A6"/>
<path d="M210.63 164.708L211.02 158.207L212.55 158.308C212.913 158.328 213.279 158.303 213.613 158.214C214.937 157.863 215.951 156.679 216.032 155.221C216.143 153.393 214.758 151.803 212.948 151.674L202.804 150.96C200.994 150.832 199.433 152.218 199.322 154.047C199.211 155.875 200.597 157.465 202.407 157.594L204.449 157.733L204.064 164.146C199.703 163.955 195.136 164.226 191.382 166.035C186.199 168.544 183.28 173.57 182.716 180.973C182.154 188.274 183.973 195.378 187.831 200.954C191.831 206.738 197.519 210.218 203.852 210.769C206.185 210.977 208.461 210.763 210.654 210.181C220.492 207.567 228.29 197.561 229.25 185.018C230.489 168.76 218.671 165.647 210.636 164.678L210.63 164.708ZM222.688 184.469C221.79 196.125 213.579 204.965 204.358 204.165C200.016 203.781 196.059 201.307 193.208 197.19C190.232 192.874 188.831 187.327 189.272 181.552C189.778 174.948 192.355 172.972 194.258 172.06C194.854 171.772 195.508 171.54 196.19 171.359C199.331 170.524 203.298 170.689 206.893 171.01C219.692 172.122 223.387 175.275 222.688 184.469Z" fill="#446993"/>
<path d="M203.867 266.212C206.303 228.566 178.104 195.775 140.883 192.971C103.662 190.167 71.5133 218.412 69.0776 256.058C66.6418 293.704 94.8409 326.496 132.062 329.3C169.283 332.104 201.431 303.858 203.867 266.212Z" fill="white"/>
<path d="M73.2986 284.816C77.5878 296.339 84.9724 306.866 95.307 314.997C104.045 321.87 113.905 326.254 124.057 328.254C151.154 315.795 165.086 286.399 171.515 267.295C165.696 265.231 160.005 260.332 156.185 253.442C154.618 250.638 153.513 247.741 152.831 244.876C130.051 250.485 91.3825 262.801 73.312 284.812L73.2986 284.816Z" fill="#65E1E9"/>
<path d="M92.652 208.771C117.914 198.499 144.619 211.932 159.822 222.217C165.592 218.971 173.034 220.37 179.377 225.195C179.11 219.871 177.459 210.666 170.229 202.263C145.384 187.494 114.179 190.326 92.6387 208.775L92.652 208.771Z" fill="#FD80A6"/>
<path d="M189.911 239.297C192.939 246.751 193.014 254.41 190.376 260.018C193.766 268.392 196.883 280.99 194.643 296.319C205.234 278.26 206.654 256.719 199.725 237.805C196.997 237.195 194.07 237.335 191.109 238.848L189.911 239.297Z" fill="#89D770"/>
<path d="M155.113 330.437C134.459 335.931 111.52 331.933 93.2837 317.601C78.2874 305.803 68.6642 288.847 66.2187 269.836C63.7634 250.843 68.7665 232.071 80.3005 217.004C104.108 185.889 148.674 180.39 179.642 204.743C210.61 229.096 216.432 274.225 192.625 305.34C182.829 318.132 169.527 326.603 155.099 330.441L155.113 330.437ZM119.55 198.337C106.458 201.819 94.4033 209.495 85.5063 221.104C75.0459 234.783 70.5047 251.807 72.7298 269.033C74.9586 286.273 83.674 301.657 97.2885 312.357C113.827 325.37 134.646 328.989 153.376 324.007C166.468 320.525 178.523 312.849 187.42 301.24C209.025 273.018 203.736 232.07 175.637 209.987C159.099 196.974 138.28 193.356 119.55 198.337Z" fill="#5A7F9E"/>
<path d="M159.802 222.219C168.622 217.261 181.3 223.177 188.104 235.429C194.908 247.682 193.28 261.64 184.463 266.612C175.643 271.57 162.965 265.654 156.161 253.402C149.357 241.149 150.985 227.191 159.802 222.219Z" fill="#FFFF9D"/>
<path d="M111.22 192.692C117.796 200.838 116.645 212.781 108.648 219.362C100.651 225.943 88.8344 224.675 82.2586 216.529C75.6828 208.383 79.8943 200.226 87.891 193.645C95.8876 187.063 104.644 184.546 111.22 192.692Z" fill="#ADBED9"/>
<path d="M102.556 226.162C94.4472 228.319 85.4059 225.66 79.7286 218.624C75.9417 213.943 74.8227 208.699 76.4841 203.469C77.8227 199.224 80.969 195.05 85.8113 191.063C90.6536 187.077 95.329 184.818 99.7245 184.345C105.135 183.762 109.993 185.923 113.78 190.603C121.492 200.16 120.152 214.227 110.758 221.949C108.271 223.989 105.482 225.384 102.569 226.158L102.556 226.162ZM98.7486 191.279C96.0769 191.989 93.0787 193.672 89.9741 196.239C86.1756 199.367 83.6749 202.586 82.7371 205.549C81.7712 208.621 82.4336 211.52 84.792 214.448C90.2111 221.161 99.9751 222.191 106.555 216.785C113.131 211.365 114.096 201.503 108.677 194.79C106.322 191.876 103.637 190.617 100.455 190.97C99.8986 191.031 99.3267 191.139 98.7389 191.296L98.7486 191.279Z" fill="#446993"/>
<path d="M227.931 313.837C272.196 316.169 291.951 287.952 281.009 253.586C278.486 245.653 247.983 274.759 247.983 274.759C247.983 274.759 216.904 275.998 197.256 283.45C177.596 290.906 183.129 311.475 227.918 313.841L227.931 313.837Z" fill="#ADBED9"/>
<path d="M276.881 236.219C275.966 234.619 270.28 237.904 271.194 239.504C282.145 258.778 283.715 277.633 275.52 291.267C267.34 304.852 250.488 311.691 228.071 310.506C215.9 309.872 205.797 307.773 198.844 304.457C193.596 301.951 190.315 298.776 189.822 295.758C189.273 292.319 192.566 288.801 198.435 286.57C217.367 279.381 247.833 278.089 248.131 278.082C249.942 278.006 251.344 276.457 251.254 274.624C251.164 272.79 249.622 271.357 247.811 271.433C247.64 271.435 246.99 271.463 245.934 271.527C247.52 263.717 245.224 254.764 244.898 253.545C244.423 251.77 242.61 250.715 240.861 251.181C239.112 251.646 238.084 253.473 238.559 255.248C239.375 258.296 240.891 266.687 238.983 272.013C228.172 272.933 209.662 275.178 196.079 280.333C187.142 283.714 182.247 290.01 183.338 296.759C183.943 300.516 186.642 305.951 196.088 310.46C203.911 314.196 214.584 316.448 227.787 317.141C237.002 317.633 245.389 316.851 252.8 314.877C265.419 311.517 275.162 304.685 281.147 294.761C290.632 278.999 289.083 257.656 276.894 236.215L276.881 236.219Z" fill="#446993"/>
</svg>
